<svg xmlns="http://www.w3.org/2000/svg" xmlns:xlink="http://www.w3.org/1999/xlink" width="1860" height="1192"><defs><style>.c{fill:#fff;opacity:.05}.m{fill:#491f6b}.p{fill:#704887}.ac{fill:#ab5f85}.ae{fill:#2a024c}.ao{fill:#522651}.bh{fill:#dcbbfc}.bi{fill:#9fb19f}.bj{fill:#7f8e7f}.bk{fill:#a877d7}.bl{fill:#865fac}.bv{fill:none}.bv,.bz,.ca{fill-rule:evenodd}.bz,.ca,.cb{fill:#f7dbb4}.bz{fill-opacity:.03}.ca{fill-opacity:.05}.cb{fill-opacity:.15}.cc,.cd,.ce{fill:#ffeeba}.cc{opacity:.15}.cd{opacity:.5}.ce{opacity:.3}</style><radialGradient id="a" cx="930" cy="991" r="927" gradientUnits="userSpaceOnUse"><stop offset="0" stop-color="#8245b7"/><stop offset="1" stop-color="#8245b7" stop-opacity="0"/></radialGradient><linearGradient id="b" x1="1034" y1="945" x2="1162" y2="945" gradientUnits="userSpaceOnUse"><stop offset="0" stop-color="#401169" stop-opacity=".3"/><stop offset="1" stop-color="#401169" stop-opacity=".2"/></linearGradient><linearGradient id="c" x1="1098" y1="974" x2="1098" y2="886" gradientUnits="userSpaceOnUse"><stop offset="0" stop-color="#29004f"/><stop offset="1" stop-color="#4a236f"/></linearGradient><linearGradient id="d" x1="1060" y1="965" x2="1060" y2="943" gradientUnits="userSpaceOnUse"><stop offset="0" stop-color="#491f6b"/><stop offset="1" stop-color="#491f6b" stop-opacity="0"/></linearGradient><linearGradient id="e" x1="940" y1="965" x2="940" gradientTransform="matrix(-1 0 0 1 2076 0)" xlink:href="#d"/><linearGradient id="f" x1="712" y1="946" x2="822" y2="946" xlink:href="#b"/><linearGradient id="g" x1="767" y1="981" x2="767" y2="881" xlink:href="#c"/><linearGradient id="h" x1="767" y1="909" x2="767" y2="884.353" gradientUnits="userSpaceOnUse"><stop offset="0" stop-color="#5e357c" stop-opacity="0"/><stop offset="1" stop-color="#5e357c"/></linearGradient><linearGradient id="i" x1="931.5" y1="863.765" x2="931.5" y2="648.5" gradientUnits="userSpaceOnUse"><stop offset="0" stop-color="#401169" stop-opacity=".3"/><stop offset="1" stop-color="#401169" stop-opacity="0"/></linearGradient><linearGradient id="j" x1="931.5" y1="848.5" x2="931.5" y2="628.5" xlink:href="#c"/><linearGradient id="k" x1="1096" y1="826" x2="1096" y2="706" xlink:href="#b"/><linearGradient id="l" x1="1096" y1="811" x2="1096" y2="691" xlink:href="#c"/><linearGradient id="m" x1="767" y1="802.022" x2="767" y2="706" gradientUnits="userSpaceOnUse"><stop offset="0" stop-color="#401169" stop-opacity=".2"/><stop offset="1" stop-color="#401169" stop-opacity=".2"/></linearGradient><linearGradient id="n" x1="767" y1="787" x2="767" y2="691" xlink:href="#c"/><linearGradient id="o" x1="724" y1="779" x2="724" y2="757" xlink:href="#d"/><linearGradient id="p" x1="1266" y1="779" x2="1266" y2="757" gradientTransform="matrix(-1 0 0 1 2076 0)" xlink:href="#d"/><linearGradient id="q" x1="931.135" y1="785" x2="931.135" y2="591" gradientUnits="userSpaceOnUse"><stop offset=".225" stop-color="#ffb691" stop-opacity="0"/><stop offset="1" stop-color="#ffb691" stop-opacity=".16"/></linearGradient><linearGradient id="r" x1="931.503" y1="1242.013" x2="931.503" y2="591" gradientUnits="userSpaceOnUse"><stop offset="0" stop-color="#ffa366" stop-opacity="0"/><stop offset=".088" stop-color="#ffa366" stop-opacity=".029"/><stop offset=".425" stop-color="#ffa366" stop-opacity=".123"/><stop offset=".738" stop-color="#ffa366" stop-opacity=".18"/><stop offset="1" stop-color="#ffa366" stop-opacity=".2"/></linearGradient><linearGradient id="s" x1="931.503" y1="1248.013" x2="931.503" y2="585" gradientUnits="userSpaceOnUse"><stop offset="0" stop-color="#ffa366" stop-opacity="0"/><stop offset="1" stop-color="#ffa366" stop-opacity=".02"/></linearGradient><linearGradient id="t" x1="931.503" y1="1246.013" x2="931.503" y2="587" gradientUnits="userSpaceOnUse"><stop offset="0" stop-color="#ffa366" stop-opacity="0"/><stop offset="1" stop-color="#ffa366" stop-opacity=".05"/></linearGradient><linearGradient id="u" x1="931.503" y1="1244.013" x2="931.503" y2="589" gradientUnits="userSpaceOnUse"><stop offset="0" stop-color="#ffa366" stop-opacity="0"/><stop offset="1" stop-color="#ffa366" stop-opacity=".1"/></linearGradient><linearGradient id="v" x1="931" y1="591" x2="931" y2="573" gradientUnits="userSpaceOnUse"><stop offset="0" stop-color="#572371"/><stop offset="1" stop-color="#4b1b76"/></linearGradient><linearGradient id="w" x1="766" y1="635" x2="766" y2="617" xlink:href="#v"/><linearGradient id="x" x1="1096" y1="635" x2="1096" y2="617" xlink:href="#v"/><radialGradient id="y" cx="925.133" cy="592.5" r="31.131" gradientTransform="matrix(1.364 0 0 1 -330.545 0)" gradientUnits="userSpaceOnUse"><stop offset=".337" stop-color="#f7dbb4"/><stop offset="1" stop-color="#f7dbb4" stop-opacity="0"/></radialGradient><radialGradient id="z" cx="804.133" cy="636.5" r="31.131" xlink:href="#y"/><radialGradient id="aa" cx="1045.4" cy="636.5" r="31.131" xlink:href="#y"/></defs><path fill="#4d1082" d="M-50 0h1910v1192H-50z"/><circle cx="930" cy="991" r="927" fill="url(#a)"/><path class="c" d="M-50 1142h1910v50H-50z"/><path class="c" d="M580 1144v48h-1v-48H-50v-2h1910v2z"/><path d="M582 1148v44h-2v-44H-50v-2h630v-4h2v4h1278v2zm-8 7a2 2 0 1 1-2-2 2 2 0 0 1 2 2zm0 29a2 2 0 1 1-2-2 2 2 0 0 1 2 2zm17-29a2 2 0 1 1-2-2 2 2 0 0 1 2 2zm0 29a2 2 0 1 1-2-2 2 2 0 0 1 2 2z" opacity=".1"/><path d="M1162 1043h28a2 2 0 0 1 2 2v46a2 2 0 0 1-2 2h-28a2 2 0 0 1-2-2v-46a2 2 0 0 1 2-2z" fill="#7f44b2"/><path d="M1190 1094h-28a2 2 0 0 1-2-2v-2a2 2 0 0 0 2 2h28a2 2 0 0 0 2-2v2a2 2 0 0 1-2 2z" fill="#7339a6"/><path d="M1190 1045h-28a2 2 0 0 0-2 2v-2a2 2 0 0 1 2-2h28a2 2 0 0 1 2 2v2a2 2 0 0 0-2-2z" fill="#874fb9"/><path d="M1176 1066a2 2 0 1 1-2 2 2 2 0 0 1 2-2z" fill="#753ba8"/><path d="M1179.866 1062h-7.732a5.556 5.556 0 0 1 0-10h7.732a5.556 5.556 0 0 1 0 10zm-7.727 12h7.722a5.552 5.552 0 0 1 0 10h-7.722a5.552 5.552 0 0 1 0-10z" fill="#9863c5"/><path d="M1178 1080v-4h2v4zm0-26h2v4h-2zm-2 29a1 1 0 1 1 1-1 1 1 0 0 1-1 1zm0-22a1 1 0 1 1 1-1 1 1 0 0 1-1 1zm-4 15h2v4h-2zm0-22h2v4h-2z" fill="#69339b"/><path d="M1162 949c0 2.987-2.132 5.7-3.407 9.14a3.034 3.034 0 0 1 2.322 2.86 3.135 3.135 0 0 1-3.254 3v21h-39.051a3.135 3.135 0 0 1-3.254 3 3.218 3.218 0 0 1-3.1-2.141c-3.732 1.175-6.675 3.141-9.915 3.141-2.4 0-4.339-2.2-4.339-2.2s-1.943 2.2-4.339 2.2c-3.24 0-6.183-1.966-9.915-3.141a3.218 3.218 0 0 1-3.1 2.141 3.135 3.135 0 0 1-3.254-3h-39.051v-21a3.135 3.135 0 0 1-3.254-3 3.034 3.034 0 0 1 2.322-2.86c-1.275-3.44-3.407-6.153-3.407-9.14a4.013 4.013 0 1 0 0-8c0-2.987 2.132-5.7 3.407-9.14a3.034 3.034 0 0 1-2.322-2.86 3.135 3.135 0 0 1 3.254-3v-21h39.051a3.135 3.135 0 0 1 3.254-3 3.219 3.219 0 0 1 3.1 2.141c3.731-1.175 6.673-3.139 9.912-3.141a4.353 4.353 0 0 0 8.678 0c3.239 0 6.181 1.966 9.912 3.141a3.219 3.219 0 0 1 3.1-2.141 3.135 3.135 0 0 1 3.254 3h39.051v21a3.135 3.135 0 0 1 3.254 3 3.034 3.034 0 0 1-2.322 2.86c1.275 3.44 3.407 6.153 3.407 9.14a4.013 4.013 0 1 0 0 8z" fill="url(#b)"/><path d="M1157 934c0 2.987-1.966 5.7-3.141 9.14A2.992 2.992 0 0 1 1153 949v21h-36a2.992 2.992 0 0 1-5.86.859c-3.44 1.175-6.153 3.141-9.14 3.141-2.209 0-4-2.2-4-2.2s-1.791 2.2-4 2.2c-2.987 0-5.7-1.966-9.14-3.141A2.992 2.992 0 0 1 1079 970h-36v-21a2.992 2.992 0 0 1-.859-5.86c-1.175-3.44-3.141-6.153-3.141-9.14a5 5 0 0 0 0-8c0-2.987 1.966-5.7 3.141-9.14A2.992 2.992 0 0 1 1043 911v-21h36a2.992 2.992 0 0 1 5.86-.859c3.439-1.175 6.151-3.139 9.137-3.141 2.209 0 3.99 2.278 3.99 2.278s1.8-2.278 4.01-2.278c2.986 0 5.7 1.966 9.137 3.141A2.992 2.992 0 0 1 1117 890h36v21a2.992 2.992 0 0 1 .859 5.86c1.175 3.44 3.141 6.153 3.141 9.14a5 5 0 0 0 0 8z" fill="url(#c)"/><path class="m" d="M1093.592 968.475a3.927 3.927 0 0 0 .436.025 4 4 0 0 0 3.965-3.5 3.923 3.923 0 0 1 .035.5 4 4 0 0 1-4 4 3.927 3.927 0 0 1-.436-.025 86.8 86.8 0 0 1-9.04-3.393c.14-.224 6.223 2.218 9.04 2.393zm8.436.025a3.909 3.909 0 0 0 .435-.025c2.817-.177 8.9-2.617 9.04-2.393a86.625 86.625 0 0 1-9.04 3.393 3.909 3.909 0 0 1-.435.025 4 4 0 0 1-4-4 4.115 4.115 0 0 1 .034-.5 4 4 0 0 0 3.966 3.5z"/><path d="M1072 964.5l-24 .5v-22h1v21z" fill="url(#d)"/><path d="M1147 964v-21h1v22l-24-.5z" fill="url(#e)"/><path class="p" d="M1114 888a2.992 2.992 0 0 0-2.86 2.14c-3.439-1.174-6.151-3.138-9.137-3.14-2.209 0-4 2.278-4 2.278s-1.791-2.278-4-2.278c-2.986 0-5.7 1.966-9.137 3.14a2.992 2.992 0 0 0-5.86.86h-36v-1h36a2.992 2.992 0 0 1 5.86-.859c3.439-1.175 6.151-3.139 9.137-3.141 2.209 0 4 2.278 4 2.278s1.791-2.278 4-2.278c2.986 0 5.7 1.966 9.137 3.141a2.992 2.992 0 0 1 5.86.859h36v1h-36a3 3 0 0 0-3-3z"/><path d="M1053 900h90v60h-90z" fill="#8989f6"/><path d="M1053 926h90v34h-90z" fill="#6861cd"/><path d="M1143 939h-14a1 1 0 0 1 0-2h14zm-72-12a1 1 0 0 1 1-1h36c1.642 0 3.638 1.432 5.334 3H1113a1 1 0 0 0 0 2h6a1 1 0 0 1 0 2h-9a1 1 0 0 1 0 2h-6a1 1 0 0 1 0-2h-12a1 1 0 0 0 0 2h5a1 1 0 0 1 0 2h-4a1 1 0 0 0-1-1h-14a1 1 0 0 1 0-2h4v-1h-10a1 1 0 0 1 0-2h1.274a15.947 15.947 0 0 1 .8-3H1072a1 1 0 0 1-1-1zm20 14v-3h1a1 1 0 0 0 1-1v4zm-10-1a1 1 0 0 1 0-2h5v3h-2v-1zm47-10h4a1 1 0 0 1 0 2h-4a1 1 0 0 1 0-2zm2 18a1 1 0 0 1-1 1h-7a1 1 0 0 1 0-2h7a1 1 0 0 1 1 1z" fill="#5848a9"/><path d="M1054 949h3a1 1 0 0 1 0 2h-3a1 1 0 0 1 0-2zm21-3h-5a1 1 0 0 1 0-2h5a1 1 0 0 1 0 2zm-14-17a1 1 0 0 1-1 1h-7v-2h7a1 1 0 0 1 1 1zm4 9a1 1 0 0 1 0 2h-10a1 1 0 0 1 0-2zm-12-6h2a1 1 0 0 1 0 2h-2z" fill="#7770d9"/><path d="M1107 926h-32c-2.416 0-3-7-3-7h9v-3h2v-5h3v5h3v-5h3v5h2v3h22s-5.369 7-9 7z" fill="#513e99"/><path d="M712 896h110v100H712z" fill="url(#f)"/><path d="M717 881h100v100H717z" fill="url(#g)"/><path d="M811 887.707V909h-1v-21h-86v21h-1v-21.293l-2.354-3.354 3.061 2.647H810l3.354-2.647z" fill="url(#h)"/><path d="M727 891h80v80h-80z" fill="#cd7477"/><path d="M727 953.775a8.123 8.123 0 0 1 6-2.775c6.615 0 6.414 5 15 5s10.019-18 21-18c9.873 0 13.343 13.26 20 12 5.447-1.031 14.941 4.474 18 6.367V971h-80z" fill="#b1607b"/><path d="M727 966c6.672-.627 11.558-15 21-15s9.414 6 18 6 15.593-28 28-28 13 7 13 7v35h-80z" fill="#763887"/><path d="M749.5 920.5a6 6 0 1 1-6 6 6 6 0 0 1 6-6z" fill="#e6aeab"/><path class="ac" d="M785.5 914.048s-1.161-4.569-7.732-3.053c3.224-3 6.938-1.247 7.732.072a5.111 5.111 0 0 1 7.68-.154c-6.499-1.578-7.68 3.135-7.68 3.135zM772.984 925.606s-.823-3.24-5.482-2.165a3.713 3.713 0 0 1 5.482.052 3.623 3.623 0 0 1 5.444-.11c-4.606-1.118-5.444 2.223-5.444 2.223z"/><path class="ae" d="M856 872h150v180H856z" opacity=".25"/><path class="ae" d="M1006 872v180H856V872h150m0-4H856a4 4 0 0 0-4 4v180a4 4 0 0 0 4 4h150a4 4 0 0 0 4-4V872a4 4 0 0 0-4-4z" opacity=".02"/><path class="ae" d="M1006 872v180H856V872h150m0-2H856a2 2 0 0 0-2 2v180a2 2 0 0 0 2 2h150a2 2 0 0 0 2-2V872a2 2 0 0 0-2-2z" opacity=".05"/><path d="M948 916c-1.657 0-3-.672-3-1.5 0-.652.837-1.2 2-1.408V905h2v8.092c1.163.207 2 .756 2 1.408 0 .828-1.343 1.5-3 1.5zm-29 0c-1.657 0-3-.672-3-1.5 0-.652.837-1.2 2-1.408V905h2v8.092c1.163.207 2 .756 2 1.408 0 .828-1.343 1.5-3 1.5z" fill="#231f20" opacity=".2"/><path d="M948.151 904.975l.986-5.759a2.992 2.992 0 0 1-.986 5.759zM945 901.99a2.993 2.993 0 0 1 2.849-2.985l-.986 5.759A3 3 0 0 1 945 901.99zm-26 3a3 3 0 0 1-2.765-1.834l5.753-1.046a2.994 2.994 0 0 1-2.988 2.88zm0-6a3 3 0 0 1 2.765 1.835l-5.753 1.045a2.994 2.994 0 0 1 2.988-2.88z" fill="#7f4eac"/><path d="M947.676 900.019a2.991 2.991 0 0 0-2.626 2.471 3.048 3.048 0 0 1-.05-.5 2.993 2.993 0 0 1 2.849-2.985zM919 899.99a3 3 0 0 0-2.95 2.5 3.048 3.048 0 0 1-.05-.5 3 3 0 0 1 6 0 3.048 3.048 0 0 1-.05.5 3 3 0 0 0-2.95-2.5zm30.137-.774A3 3 0 0 1 951 901.99a3.048 3.048 0 0 1-.05.5 3 3 0 0 0-1.974-2.331z" fill="#be99df"/><path d="M961.621 841.863a3.742 3.742 0 0 1 1.475 2.9c0 2.071-1.849 3.755-4.209 3.96a2.818 2.818 0 0 1-.472.04 2.19 2.19 0 0 1-2.341-2 1.751 1.751 0 0 1 .251-.883c-8.964 1.043-6.649 8.883-14.293 8.883a6.46 6.46 0 0 1-3.513-1.024v.024c0 3.314-7.021 7.556-7.021 10 0-2.411-7.021-6.686-7.021-10v-.024a6.46 6.46 0 0 1-3.513 1.024c-7.644 0-5.329-7.84-14.293-8.883a1.75 1.75 0 0 1 .25.883 2.189 2.189 0 0 1-2.34 2c-2.585 0-4.681-1.791-4.681-4a3.739 3.739 0 0 1 1.475-2.9c-31.648-14.382-54.129-50.738-54.129-93.363 0-55.229 37.72-100 84.25-100s84.25 44.771 84.25 100c.004 42.625-22.477 78.981-54.125 93.363z" fill="url(#i)"/><path d="M1009.906 738.5c0 39.685-20.094 73.656-48.62 87.862a3.812 3.812 0 0 1 1.81 3.138c0 2.209-2.1 4-4.681 4h-.009a2.193 2.193 0 0 1-2.344-2 1.749 1.749 0 0 1 .25-.882c-8.948 1.049-6.64 8.882-14.28 8.882a6.439 6.439 0 0 1-3.512-1.027v.027c0 3.314-7.021 7.556-7.021 10 0-2.412-7.021-6.686-7.021-10v-.027a6.439 6.439 0 0 1-3.512 1.027c-7.64 0-5.332-7.833-14.28-8.882a1.758 1.758 0 0 1 .249.882 2.192 2.192 0 0 1-2.343 2h-.009c-2.585 0-4.681-1.791-4.681-4a3.812 3.812 0 0 1 1.81-3.138c-28.526-14.206-48.62-48.177-48.62-87.862s20.094-73.656 48.62-87.862a3.811 3.811 0 0 1-1.81-3.138c0-2.209 2.1-4 4.681-4h.009a2.192 2.192 0 0 1 2.343 2 1.758 1.758 0 0 1-.249.882c8.948-1.049 6.64-8.882 14.28-8.882a6.439 6.439 0 0 1 3.512 1.027v-.027c0-3.314 7.021-7.588 7.021-10 0 2.444 7.021 6.686 7.021 10v.027a6.439 6.439 0 0 1 3.512-1.027c7.64 0 5.332 7.833 14.28 8.882a1.749 1.749 0 0 1-.25-.882 2.193 2.193 0 0 1 2.344-2h.009c2.585 0 4.681 1.791 4.681 4a3.811 3.811 0 0 1-1.81 3.138c28.526 14.206 48.62 48.177 48.62 87.862z" fill="url(#j)"/><path class="m" d="M906.925 826c0-.239 3.411.009 4.558.635 3.618 1.974 3.681 5.365 9.485 5.365a8.148 8.148 0 0 0 3.511-.755c0 2.485 7.021 5.691 7.021 7.5 0-1.833 7.021-5.015 7.021-7.5a8.148 8.148 0 0 0 3.511.755c5.528 0 5.848-3.076 8.992-5.075 1.2-.764 5.05-1.164 5.05-.925a.966.966 0 0 0 .019.118c-8.673.868-6.489 6.632-14.061 6.632a8.148 8.148 0 0 1-3.511-.755c0 2.485-7.021 5.667-7.021 7.5 0-1.809-7.021-5.015-7.021-7.5a8.148 8.148 0 0 1-3.511.755c-7.573 0-5.388-5.764-14.061-6.632a.962.962 0 0 0 .018-.118z"/><path class="p" d="M961.286 651.638a4.63 4.63 0 0 0 .738-.613c28.131 14.422 47.882 48.135 47.882 87.475 0 .167-.007.333-.008.5-.168-39.47-20.206-73.216-48.612-87.362zm-2.871-7.138h-.009a2.3 2.3 0 0 0-2.26 1.5 1.626 1.626 0 0 1-.084-.5 2.193 2.193 0 0 1 2.344-2h.009c2.585 0 4.681 1.791 4.681 4a3.353 3.353 0 0 1-.052.561 4.457 4.457 0 0 0-4.629-3.561zm-2.334 1.841c0 .053-.019.1-.019.159a1.749 1.749 0 0 0 .25.882c-8.948-1.049-6.64-8.882-14.28-8.882a6.439 6.439 0 0 0-3.512 1.027v-.027c0-3.314-7.021-7.556-7.021-10 0 2.412-7.021 6.686-7.021 10v.027a6.439 6.439 0 0 0-3.512-1.027c-7.64 0-5.332 7.833-14.28 8.882a1.758 1.758 0 0 0 .249-.882c0-.055-.013-.106-.018-.159 8.659-1.163 6.48-8.841 14.049-8.841a6.439 6.439 0 0 1 3.512 1.027v-.027c0-3.314 7.021-7.588 7.021-10 0 2.444 7.021 6.686 7.021 10v.027a6.439 6.439 0 0 1 3.512-1.027c7.568 0 5.39 7.678 14.049 8.841zm-51.487-1.841h-.009a4.457 4.457 0 0 0-4.629 3.561 3.353 3.353 0 0 1-.052-.561c0-2.209 2.1-4 4.681-4h.009a2.192 2.192 0 0 1 2.343 2 1.625 1.625 0 0 1-.083.5 2.3 2.3 0 0 0-2.26-1.5zm-2.88 7.138C873.308 665.784 853.27 699.53 853.1 739c0-.167-.008-.333-.008-.5 0-39.34 19.751-73.053 47.882-87.475a4.586 4.586 0 0 0 .74.613z"/><path d="M931.5 653.5c37.538 0 67.969 38.056 67.969 85s-30.431 85-67.969 85-67.969-38.056-67.969-85 30.431-85 67.969-85z" fill="#b55072"/><path d="M944.771 728.233a15.891 15.891 0 0 1-7.788 4.4h.009l-3.349 1.852a10.188 10.188 0 0 1 .907-3.257 17.739 17.739 0 0 1 2.507-3.849s-4.926-1.634-8.618 3.98a6.942 6.942 0 0 0-.458.808 16.084 16.084 0 1 1 16.79-3.936zm-6.922 66.33c3.073 1.732 3.919 3.262 3.2 6.69-.6 2.848-1.174 4.759-2.53 5.758-2.355 1.737-5.885 1.071-7.488.3-1.312 5.586-3.645 8.877-5.946 9.047a218.294 218.294 0 0 0 5.453-23.378 16.072 16.072 0 0 1 7.311 1.583z" fill="#d1bce5"/><path class="ao" d="M934.853 727.205c-1.065 1.183-3.967 2.491-4.435 4.142a2.356 2.356 0 0 1-.68 2.585 3.171 3.171 0 0 1-3.877.252 2.811 2.811 0 0 1-.317-3.937c2.614-2.92 6.488-3.957 7.257-4.716 2.043-2.017-1.246-3.627-2.207-2.252 3.267-4.523 7.698.108 4.259 3.926zm-10.5.8c-.868-.544-1.313-1.4-.993-1.918s1.283-.491 2.151.053 1.312 1.4.992 1.918-1.278.487-2.146-.058zm-2.29-3.949c-1.251 1.186-2.165 1.911-2.165 1.911s-.412-.579-.732-1.144a12.351 12.351 0 0 1-.595-1.235 4.677 4.677 0 0 0 2.9-1.11 3.744 3.744 0 0 1 4.305-.5 8.827 8.827 0 0 0-3.709 2.074z"/><path d="M946.563 709.287c-4.31-4.2-10.076 2.595-10.076 2.595s-2.222-4.034-5.077-1.671 1.876 7.344-.933 5.931c-3.808-1.915-9.237.233-13.231 2.5a16.064 16.064 0 0 1 30.491-8.647c-.207.065-.585-.135-1.174-.708z" fill="#6c4273"/><path class="ao" d="M957.877 816.859a91.446 91.446 0 0 0 1.413-8.985 11.809 11.809 0 0 1-2.647-.4c3.369-7.649 2.1-12.567 1.94-17.87a32.793 32.793 0 0 0-5.145-12.083c-.442-.622-.853-1.254-1.277-1.883-.573 2.68-1.133 5.277-1.654 7.683l2.057.483a51.08 51.08 0 0 0-1.62 6.865 77.537 77.537 0 0 0-.756 8.339s-10.926-.922-15.273-1.847a40.4 40.4 0 0 1-8.491-2.951s4.4-17.123 7.969-34.155c2.141-10.216 3.954-20.4 5-26.534.105-.878 1.6-8.811 5.67-14.381a79.7 79.7 0 0 1 6.6-7.457c.016-.033 1.61 1.261 3.539 2.56a14.067 14.067 0 0 0 4.063 1.671l-.843 1.8a3.223 3.223 0 0 1 1.561.3c3.654.945 14.1 4.827 22.513 19.481a102.2 102.2 0 0 1 11.742 33.723c-6.853 20.543-19.965 36.999-36.361 45.641zm-27.638-107.253c-10.282 5.856-21.38 11.589-21.38 11.589l-2.347-1.2s3.468-1.77 8.372-4.369a111.062 111.062 0 0 0-7.447-14.428A121.013 121.013 0 0 0 896.73 687a97.552 97.552 0 0 1 13.218-9.235c7-3.936 15.462-7.643 15.462-7.643a106.233 106.233 0 0 0 6.265 15.7 139.544 139.544 0 0 0 9.152 15.133c4.306-2.626 7.223-4.5 7.223-4.5l-.143 2.5s-8.488 5.422-17.668 10.651z"/><path d="M958.45 774.82a1.279 1.279 0 1 0-.22 2.05 1.487 1.487 0 0 0 .22-2.05zm-21.98-80.45s-5.67 4.11-11.65 7.65c-6.29 3.71-13.05 6.92-13.05 6.92l1.35 2.87s6.86-3.28 13.14-6.9c6.13-3.53 12.07-7.62 12.07-7.62zm9.19 97.99a1.336 1.336 0 1 0 .52 1.83 1.348 1.348 0 0 0-.52-1.83zm.75-7.59a1.33 1.33 0 0 0-1.81.51 1.345 1.345 0 0 0 .52 1.83 1.33 1.33 0 0 0 1.81-.51 1.345 1.345 0 0 0-.52-1.83zm9.37-27.56q-.435 1.59-.81 3.12a23.916 23.916 0 0 0 3.16-2.51zm4.62 1.27a41.619 41.619 0 0 1-5.29 3.77q-.345.21-.69.39c-.09.37-.17.73-.25 1.09.47-.25.94-.51 1.4-.79a57.136 57.136 0 0 0 5.34-3.6zm4.11 30.95c-.24-.88-.96-1.46-1.61-1.28a1.493 1.493 0 0 0-.74 1.92c.24.88.97 1.45 1.61 1.28a1.493 1.493 0 0 0 .74-1.92z" fill="#6d4275"/><path d="M952.275 774.05s-.855-23.881 11.138-35.05c-8.085 11.76-11.138 35.05-11.138 35.05z" fill="#481f4b"/><path d="M1051 706h90v120h-90z" fill="url(#k)"/><path d="M1056 691h80v120h-80z" fill="url(#l)"/><path class="p" d="M1056 692v-1h80v1z"/><path d="M1066 701h60v100h-60z" fill="#793dd9"/><path d="M1100 794v-2h-10v1l-4 1h-1v1l-19 6v-46l19 16v8h1l4 3v8h10v-19l12-7.385V758l14-10v53z" fill="#4d1e84"/><path d="M1100 794l26 7h-26zm-10 7h-24l19-6v-1h1l4-1v-1h10v2h-10z" fill="#5a269c"/><path d="M1118.5 792a4.5 4.5 0 1 1 4.5-4.5 4.5 4.5 0 0 1-4.5 4.5zm-45 0a4.5 4.5 0 1 1 4.5-4.5 4.5 4.5 0 0 1-4.5 4.5z" fill="#5f2f87"/><path d="M1118.5 789a1.5 1.5 0 1 1 1.5-1.5 1.5 1.5 0 0 1-1.5 1.5zm-10.156-1.5a1.157 1.157 0 1 1 1.156 1.156 1.156 1.156 0 0 1-1.156-1.156zm-5.656 0a.813.813 0 1 1 .812.812.812.812 0 0 1-.812-.812zm-19 0a.813.813 0 1 1 .812.812.813.813 0 0 1-.812-.812zm-4.344 0a1.156 1.156 0 1 1 1.156 1.156 1.156 1.156 0 0 1-1.156-1.156zm-5.844 1.5a1.5 1.5 0 1 1 1.5-1.5 1.5 1.5 0 0 1-1.5 1.5z" fill="#f4ce95"/><path d="M1112.5 723a6.485 6.485 0 0 1-2.828-12.328 6.459 6.459 0 0 0 8.656 8.656A6.482 6.482 0 0 1 1112.5 723zm-10 28a.5.5 0 1 1 .5-.5.5.5 0 0 1-.5.5zm-8.5-23a1 1 0 1 1 1-1 1 1 0 0 1-1 1zm-13.5 11a.5.5 0 1 1 .5-.5.5.5 0 0 1-.5.5z" fill="#d7b7f4"/><path d="M835 802h-14l-2.618-2.617a4.976 4.976 0 0 1-8.96-.361h-84.844a4.976 4.976 0 0 1-8.96.361L713 802h-14v-14l2.611-2.611a4.975 4.975 0 0 1 .389-8.944V731.6a4.976 4.976 0 0 1-.36-8.96L699 720v-14h14l2.633 2.633a4.976 4.976 0 0 1 8.945.389h84.844a4.976 4.976 0 0 1 8.945-.389L821 706h14v14l-2.64 2.64a4.976 4.976 0 0 1-.36 8.96v44.845a4.975 4.975 0 0 1 .389 8.944L835 788z" fill="url(#m)"/><path d="M830 787h-14l-2.625-2.625a4.976 4.976 0 0 1-8.953-.375h-74.844a4.976 4.976 0 0 1-8.953.375L718 787h-14v-14l2.625-2.625a4.976 4.976 0 0 1 .375-8.953v-44.844a4.976 4.976 0 0 1-.375-8.953L704 705v-14h14l2.625 2.625a4.976 4.976 0 0 1 8.953.375h74.844a4.976 4.976 0 0 1 8.953-.375L816 691h14v14l-2.625 2.625a4.976 4.976 0 0 1-.375 8.953v44.844a4.976 4.976 0 0 1 .375 8.953L830 773z" fill="url(#n)"/><path d="M717 704h100v70H717z" fill="#798a7a"/><path class="p" d="M827.982 770.982L830 773v1l-2.625-2.625a5.159 5.159 0 0 0 .607-.393zm-.982-8.56v-1a5 5 0 0 1 3 4.578 4.895 4.895 0 0 1-.036.517 4.994 4.994 0 0 0-2.964-4.095zm.375-53.8l.607-.607A4.951 4.951 0 0 1 830 712c0 .164-.021.323-.036.483a4.989 4.989 0 0 0-2.589-3.858zm-14-14a4.976 4.976 0 0 0-8.953.375h-74.844a4.976 4.976 0 0 0-8.953-.375L718 692h-14v-1h14l2.625 2.625a4.976 4.976 0 0 1 8.953.375h74.844a4.976 4.976 0 0 1 8.953-.375L816 691h14v1h-14zm-106.75 14a4.989 4.989 0 0 0-2.589 3.858c-.015-.16-.036-.319-.036-.483a4.951 4.951 0 0 1 2.018-3.982zm.375 52.8v1a4.994 4.994 0 0 0-2.964 4.1A4.895 4.895 0 0 1 704 766a5 5 0 0 1 3-4.578zm-.375 9.953L704 774v-1l2.018-2.018a5.159 5.159 0 0 0 .607.393z"/><path d="M736 778.5l-24 .5v-22h1v21z" fill="url(#o)"/><path d="M821 778v-21h1v22l-24-.5z" fill="url(#p)"/><path d="M817 774h-41.783l-18.788-12.381c-6.128-4.037-2.764-11.487 6.754-16.518 8.987-4.751 20.741-5.862 26.911-2.6L817 756.705z" fill="#5e6564"/><path d="M770 727.5c15.74 0 28.5 5.6 28.5 12.5s-12.76 12.5-28.5 12.5-28.5-5.6-28.5-12.5 12.76-12.5 28.5-12.5z" fill="#4f428b"/><path class="bh" d="M770 727.5c-14.97 0-27.25 5.07-28.4 11.5h4.02c1.17-5.33 11.64-9.5 24.38-9.5s23.21 4.17 24.38 9.5h4.02c-1.15-6.43-13.43-11.5-28.4-11.5z"/><path class="bi" d="M766.5 722a8.5 8.5 0 1 1-8.5 8.5 8.5 8.5 0 0 1 8.5-8.5z"/><path class="bj" d="M771.13 723.37a8.5 8.5 0 0 1-11.76 11.76 8.5 8.5 0 1 0 11.76-11.76z"/><path class="bi" d="M755.5 729a8.5 8.5 0 1 1-8.5 8.5 8.5 8.5 0 0 1 8.5-8.5z"/><path class="bj" d="M760.13 730.37a8.5 8.5 0 0 1-11.76 11.76 8.5 8.5 0 1 0 11.76-11.76z"/><path class="bk" d="M778.5 726a3.5 3.5 0 1 1-3.5 3.5 3.5 3.5 0 0 1 3.5-3.5z"/><path class="bl" d="M780.42 726.58a3.423 3.423 0 0 1 .58 1.92 3.5 3.5 0 0 1-3.5 3.5 3.423 3.423 0 0 1-1.92-.58 3.5 3.5 0 1 0 4.84-4.84z"/><path class="bk" d="M785.5 727a3.5 3.5 0 1 1-3.5 3.5 3.5 3.5 0 0 1 3.5-3.5z"/><path class="bl" d="M787.42 727.58a3.423 3.423 0 0 1 .58 1.92 3.5 3.5 0 0 1-3.5 3.5 3.423 3.423 0 0 1-1.92-.58 3.5 3.5 0 1 0 4.84-4.84z"/><path class="bk" d="M781.5 731a3.5 3.5 0 1 1-3.5 3.5 3.5 3.5 0 0 1 3.5-3.5z"/><path class="bl" d="M783.42 731.58a3.423 3.423 0 0 1 .58 1.92 3.5 3.5 0 0 1-3.5 3.5 3.423 3.423 0 0 1-1.92-.58 3.5 3.5 0 1 0 4.84-4.84z"/><path class="bk" d="M777.5 732a3.5 3.5 0 1 1-3.5 3.5 3.5 3.5 0 0 1 3.5-3.5z"/><path class="bl" d="M779.42 732.58a3.423 3.423 0 0 1 .58 1.92 3.5 3.5 0 0 1-3.5 3.5 3.423 3.423 0 0 1-1.92-.58 3.5 3.5 0 1 0 4.84-4.84z"/><path class="bk" d="M780.5 737a3.5 3.5 0 1 1-3.5 3.5 3.5 3.5 0 0 1 3.5-3.5z"/><path class="bl" d="M782.42 737.58a3.423 3.423 0 0 1 .58 1.92 3.5 3.5 0 0 1-3.5 3.5 3.423 3.423 0 0 1-1.92-.58 3.5 3.5 0 1 0 4.84-4.84z"/><path class="bk" d="M786.5 733a3.5 3.5 0 1 1-3.5 3.5 3.5 3.5 0 0 1 3.5-3.5z"/><path class="bl" d="M788.42 733.58a3.423 3.423 0 0 1 .58 1.92 3.5 3.5 0 0 1-3.5 3.5 3.423 3.423 0 0 1-1.92-.58 3.5 3.5 0 1 0 4.84-4.84z"/><path class="bk" d="M790.5 737a3.5 3.5 0 1 1-3.5 3.5 3.5 3.5 0 0 1 3.5-3.5z"/><path class="bl" d="M792.42 737.58a3.423 3.423 0 0 1 .58 1.92 3.5 3.5 0 0 1-3.5 3.5 3.423 3.423 0 0 1-1.92-.58 3.5 3.5 0 1 0 4.84-4.84z"/><path class="bk" d="M786.5 740a3.5 3.5 0 1 1-3.5 3.5 3.5 3.5 0 0 1 3.5-3.5z"/><path class="bl" d="M788.42 740.58a3.423 3.423 0 0 1 .58 1.92 3.5 3.5 0 0 1-3.5 3.5 3.423 3.423 0 0 1-1.92-.58 3.5 3.5 0 1 0 4.84-4.84z"/><path class="bk" d="M781.5 743a3.5 3.5 0 1 1-3.5 3.5 3.5 3.5 0 0 1 3.5-3.5z"/><path class="bl" d="M783.42 743.58a3.423 3.423 0 0 1 .58 1.92 3.5 3.5 0 0 1-3.5 3.5 3.423 3.423 0 0 1-1.92-.58 3.5 3.5 0 1 0 4.84-4.84z"/><path class="bi" d="M770.5 735a8.5 8.5 0 1 1-8.5 8.5 8.5 8.5 0 0 1 8.5-8.5z"/><path class="bj" d="M775.13 736.37a8.5 8.5 0 0 1-11.76 11.76 8.5 8.5 0 1 0 11.76-11.76z"/><path d="M794.38 739a4.209 4.209 0 0 1 .12 1c0 5.8-10.97 10.5-24.5 10.5s-24.5-4.7-24.5-10.5a4.209 4.209 0 0 1 .12-1h-4.05c0 .04.01.08.01.12a15.409 15.409 0 0 0 .79 3.93.091.091 0 0 0 .03.07c3.09 9.12 14.26 15.88 27.6 15.88s24.51-6.76 27.6-15.88a.091.091 0 0 0 .03-.07 15.409 15.409 0 0 0 .79-3.93c0-.04.01-.08.01-.12z" fill="#9e9cb3"/><path class="bh" d="M798.42 739.12a.5.5 0 0 0-.02-.12h-4.02a4.209 4.209 0 0 1 .12 1c0 5.8-10.97 10.5-24.5 10.5s-24.5-4.7-24.5-10.5a4.209 4.209 0 0 1 .12-1h-4.02a.5.5 0 0 0-.02.12 4.3 4.3 0 0 0-.08.88 5.987 5.987 0 0 0 .87 3.05.091.091 0 0 0 .03.07c3.16 5.39 14.32 9.38 27.6 9.38s24.44-3.99 27.6-9.38a.091.091 0 0 0 .03-.07 5.987 5.987 0 0 0 .87-3.05 4.3 4.3 0 0 0-.08-.88z"/><path fill="url(#q)" d="M1232.31 785L1140 635h-88l-24.925 40.62L975 591h-88l-51.963 84.685L810 635h-88l-92.04 150h602.35z"/><path fill="url(#r)" d="M1020.93 731.226l34.07-96.225h82l200.013 607.012-811.02-.001L725 635h82l34.398 96.747L890 591h82l48.93 140.226z"/><path d="M972 591l48.93 140.226L1055 635h82l200.013 607.012h-811.02L725 635h82l34.4 96.747L890 591h82m0-6h-82a6 6 0 0 0-5.671 4.042L841.316 713.6l-28.663-80.61A6 6 0 0 0 807 629h-82a6 6 0 0 0-5.7 4.131l-199.008 607.011a6 6 0 0 0 5.7 7.87h811.02a6 6 0 0 0 5.7-7.878L1142.7 633.123A6 6 0 0 0 1137 629h-82a6 6 0 0 0-5.656 4l-28.372 80.134-43.307-124.111A6 6 0 0 0 972 585z" fill="url(#s)"/><path d="M972 591l48.93 140.226L1055 635h82l200.013 607.012h-811.02L725 635h82l34.4 96.747L890 591h82m0-4h-82a4 4 0 0 0-3.781 2.694l-44.876 129.957-30.574-85.991A4 4 0 0 0 807 631h-82a4 4 0 0 0-3.8 2.754l-199.008 607.011a4 4 0 0 0 3.8 5.247h811.02a4 4 0 0 0 3.8-5.252L1140.8 633.749A4 4 0 0 0 1137 631h-82a4 4 0 0 0-3.771 2.665l-30.271 85.5-45.181-129.483A4 4 0 0 0 972 587z" fill="url(#t)"/><path d="M972 591l48.93 140.226L1055 635h82l200.013 607.012h-811.02L725 635h82l34.4 96.747L890 591h82m0-2h-82a2 2 0 0 0-1.891 1.347L841.371 725.7l-32.487-91.37A2 2 0 0 0 807 633h-82a2 2 0 0 0-1.9 1.377l-199.007 607.011a2 2 0 0 0 1.9 2.624h811.02a2 2 0 0 0 1.9-2.626L1138.9 634.375A2 2 0 0 0 1137 633h-82a2 2 0 0 0-1.885 1.332l-32.171 90.868-47.056-134.859A2 2 0 0 0 972 589z" fill="url(#u)"/><path d="M887 585a6 6 0 0 1 6-6h32a6 6 0 0 1 12 0h32a6 6 0 0 1 6 6v6h-88z" fill="url(#v)"/><path d="M722 629a6 6 0 0 1 6-6h32a6 6 0 0 1 12 0h32a6 6 0 0 1 6 6v6h-88z" fill="url(#w)"/><path d="M1052 629a6 6 0 0 1 6-6h32a6 6 0 0 1 12 0h32a6 6 0 0 1 6 6v6h-88z" fill="url(#x)"/><path class="bv" d="M887 591h88v2h-88zM1052 635h88v2h-88zM722 635h88v2h-88z"/><path d="M871 591h120v3H871z" fill="url(#y)"/><path d="M706 635h120v3H706z" fill="url(#z)"/><path d="M1035 635h120v3h-120z" fill="url(#aa)"/><path class="bz" d="M931 636a43.992 43.992 0 0 1-43.975-43h87.95A43.992 43.992 0 0 1 931 636z"/><path class="bz" d="M931 623a30.994 30.994 0 0 1-30.975-30h61.95A31 31 0 0 1 931 623z"/><path class="ca" d="M931 611a19 19 0 0 1-18.974-18h37.948A19 19 0 0 1 931 611z"/><path class="cb" d="M931 599a7 7 0 0 1-6.921-6h13.841a7 7 0 0 1-6.92 6z"/><path class="bz" d="M766 680a43.992 43.992 0 0 1-43.975-43h87.95A43.992 43.992 0 0 1 766 680z"/><path class="bz" d="M766 667a30.994 30.994 0 0 1-30.975-30h61.95A31 31 0 0 1 766 667z"/><path class="ca" d="M766 655a19 19 0 0 1-18.974-18h37.948A19 19 0 0 1 766 655z"/><path class="cb" d="M766 643a7 7 0 0 1-6.921-6h13.841a7 7 0 0 1-6.92 6z"/><path class="bz" d="M1096 680a43.992 43.992 0 0 1-43.975-43h87.95A43.992 43.992 0 0 1 1096 680z"/><path class="bz" d="M1096 667a30.994 30.994 0 0 1-30.975-30h61.95A31 31 0 0 1 1096 667z"/><path class="ca" d="M1096 655a19 19 0 0 1-18.974-18h37.948A19 19 0 0 1 1096 655z"/><path class="cb" d="M1096 643a7 7 0 0 1-6.921-6h13.841a7 7 0 0 1-6.92 6z"/><path class="cc" d="M1173.5 807a.5.5 0 1 1 .5-.5.5.5 0 0 1-.5.5z"/><path class="cd" d="M1111.5 647a.5.5 0 1 1 .5-.5.5.5 0 0 1-.5.5zM1109.5 656a.5.5 0 1 1 .5-.5.5.5 0 0 1-.5.5z"/><circle class="ce" cx="1101.5" cy="728.5" r=".5"/><path class="cc" d="M1079.5 779a.5.5 0 1 1 .5-.5.5.5 0 0 1-.5.5z"/><circle class="ce" cx="1069.5" cy="694.5" r=".5"/><circle class="cd" cx="1059.5" cy="644.5" r=".5"/><circle class="ce" cx="1046.5" cy="672.5" r=".5"/><path class="ce" d="M990.5 649a.5.5 0 1 1 .5-.5.5.5 0 0 1-.5.5zM962.5 611a.5.5 0 1 1 .5-.5.5.5 0 0 1-.5.5z"/><path class="cc" d="M958.5 693a.5.5 0 1 1 .5-.5.5.5 0 0 1-.5.5z"/><path class="ce" d="M957.5 641a.5.5 0 1 1 .5-.5.5.5 0 0 1-.5.5z"/><path class="cd" d="M947.5 602a.5.5 0 1 1 .5-.5.5.5 0 0 1-.5.5z"/><path class="ce" d="M942.5 621a.5.5 0 1 1 .5-.5.5.5 0 0 1-.5.5z"/><circle class="cd" cx="927.5" cy="615.5" r=".5"/><path class="cd" d="M921.5 600a.5.5 0 1 1 .5-.5.5.5 0 0 1-.5.5z"/><path class="cc" d="M910.5 790a.5.5 0 1 1 .5-.5.5.5 0 0 1-.5.5z"/><path class="ce" d="M905.5 657a.5.5 0 1 1 .5-.5.5.5 0 0 1-.5.5zM888.5 624a.5.5 0 1 1 .5-.5.5.5 0 0 1-.5.5z"/><path class="cc" d="M863.5 679a.5.5 0 1 1 .5-.5.5.5 0 0 1-.5.5z"/><circle class="cc" cx="800.5" cy="716.5" r=".5"/><circle class="cc" cx="787.5" cy="821.5" r=".5"/><circle class="ce" cx="784.5" cy="662.5" r=".5"/><circle class="cd" cx="781.5" cy="642.5" r=".5"/><circle class="cd" cx="773.5" cy="645.5" r=".5"/><path class="cc" d="M764.5 749a.5.5 0 1 1 .5-.5.5.5 0 0 1-.5.5z"/><path class="ce" d="M758.5 668a.5.5 0 1 1 .5-.5.5.5 0 0 1-.5.5z"/><circle class="cd" cx="750.5" cy="644.5" r=".5"/><circle class="ce" cx="719.5" cy="663.5" r=".5"/></svg>
