<svg xmlns="http://www.w3.org/2000/svg" fill="none" viewBox="0 0 185 332">
<g filter="url(#d)">
<path d="m141.97 265.9c1.296-0.513 4.888 0.596 6.209 1.082 3.378 1.239 5.079 7.437 6.382 9.914 1.659 3.153 3.929 5.98 6.642 8.287 2.916 2.481 6.181 5.661 8.517 8.793 3.869 5.189 0.355 15.942-7.309 11.22-1.516-0.933-0.876-1.739 0.864-1.91 9.182-0.898 3.893-8.741 0.296-11.878-2.353-2.055-4.8-3.937-6.972-6.202-4.374-4.564-7.945-10.046-10.117-15.995-0.338-0.754-5.172-3.066-4.512-3.311z" clip-rule="evenodd" fill="#EB7D16" fill-rule="evenodd"/>
<path d="m42.659 175.38c-1.6879 0.529-6.5996 1.612-8.526-2.902 0.9707-0.81 2.227-2.059 3.6688-3.609 2.0242 1.655 3.6935 3.809 4.8572 6.511z" clip-rule="evenodd" fill="#5EB2FC" fill-rule="evenodd"/>
<path d="m66.358 130.78 10.345 7.666 1.5066 15.607-34.964 21.119s-0.2208 0.091-0.5858 0.206c-1.1637-2.702-2.833-4.856-4.8582-6.511 9.2364-9.933 26.349-32.69 28.556-38.087z" clip-rule="evenodd" fill="#5EB2FC" fill-rule="evenodd"/>
<path d="m49.524 154.89c0.9773 0.937 2.0228 1.786 3.192 2.531 0.5269 0.335 1.4017 0.44 1.8021-0.189 2.2803-3.59 3.2752-7.976 3.5125-12.186 0.0261-0.459 0.0494-0.964 0.0622-1.494 4.1553-5.734 7.3872-10.621 8.2649-12.765l10.345 7.664 1.5067 15.607-34.964 21.121s-0.2218 0.089-0.5867 0.205c-1.1638-2.701-2.831-4.855-4.8552-6.511 3.2594-3.506 7.4993-8.608 11.721-13.983z" clip-rule="evenodd" fill="#1273EB" fill-rule="evenodd"/>
<path d="m42.659 175.38c-1.6879 0.529-6.5995 1.612-8.526-2.902 0.9726-0.811 2.2264-2.055 3.6709-3.609 2.0232 1.656 3.6914 3.809 4.8551 6.511z" clip-rule="evenodd" fill="#1273EB" fill-rule="evenodd"/>
<path d="m104.68 38.042c11.496-7.8476 20.759-2.6856 24.064 6.8844 3.304 9.571 5.908 34.868 3.779 47.612-2.129 12.743-8.717 26.453-10.288 38.256-1.57 11.803-18.237 19.625-20.736 10.859-2.4988-8.766-8.176-94.447 3.181-103.61z" clip-rule="evenodd" fill="#0353A7" fill-rule="evenodd"/>
<path d="m128.53 99.192c-0.314-5.993-0.51-11.988-0.749-17.984-0.425-10.638-0.651-21.511-3.246-31.863-0.111-0.4508-0.678-0.6959-1.092-0.6655-5.718 0.427-12.207 0.2072-16.636-3.9527-1.601-1.5019-2.675-3.3417-3.327-5.3364 0.377-0.5464 0.774-1.0064 1.197-1.3486 11.496-7.8466 20.759-2.6856 24.064 6.8854 3.304 9.57 5.908 34.868 3.779 47.611-0.767 4.5933-2.116 9.3115-3.599 14.02-0.065-2.455-0.263-4.914-0.391-7.365z" clip-rule="evenodd" fill="#0161CD" fill-rule="evenodd"/>
<path d="m36.258 170.25c5.285-7.088 7.2834-16.048 8.4794-14.723 1.4684 1.63 7.4552 7.255 16.837 12.858 2.3324 1.44-17.711 7.458-21.094 9.776-1.3724-3.874-1.2919-5.948-4.223-7.911z" clip-rule="evenodd" fill="#FCD250" fill-rule="evenodd"/>
<path d="m33.497 172.61c1.4562-1.108 2.7589-2.308 3.9221-3.515 1.8803 2.162 3.1857 4.996 3.5982 8.558-0.3256 0.164-0.5202 0.331-0.5359 0.507-0.3488 2.45-0.9846 3.854-3.9362 5.419-2.9525 1.565-2.1228 2.648-3.126 5.875 2.8552 1.239 2.0607 3.294 0.1368 3.836 2.2497 2.09-0.1453 4.09-4.2154 3.326 1.231 5.122-1.7596 4.909-3.488 2.594 0.064 5.881-1.6588 6.097-3.2285 5.225-1.569-0.874-2.8068-11.436 0.0888-19.886 2.8977-8.449 2.9662-5.989 10.784-11.939z" clip-rule="evenodd" fill="#FCD250" fill-rule="evenodd"/>
<path d="m56.088 164.86c1.6725 1.15 3.4985 2.337 5.4875 3.525 2.3323 1.44-17.712 7.459-21.094 9.776-0.2741-0.772-1.0647-1.902-1.4119-2.595 1.9703-5.285 12.24-7.575 17.018-10.706z" clip-rule="evenodd" fill="#FCBD24" fill-rule="evenodd"/>
<path d="m22.695 194.55c1.0803-5.315 3.8586-9.964 7.6203-13.235-0.6309 2.014-0.916 4.181-0.7912 6.277 0.1432 2.444 1.9182 3.681 3.5752 1.719 0.2002-0.238 0.3926-0.503 0.5758-0.789-0.0719 0.292-0.1524 0.598-0.2559 0.933 2.8552 1.24 2.0606 3.295 0.1378 3.837 2.2486 2.088-0.1463 4.089-4.2155 3.326 1.2301 5.121-1.7606 4.908-3.489 2.594 0.065 5.879-1.6589 6.095-3.2286 5.224-0.4229-0.235-0.8219-1.181-1.1213-2.594 0.3582-2.438 0.7012-4.876 1.1924-7.292z" clip-rule="evenodd" fill="#FCBD24" fill-rule="evenodd"/>
<path d="m26.871 199.68c0.2695-0.029 0.4657-0.267 0.4424-0.537-0.2505-2.899-0.581-4.762-0.9813-5.556 0.2996-0.575 1.1647-2.141 2.7864-4.381 0.1617-0.222 0.1131-0.531-0.11-0.693-0.2199-0.159-0.5318-0.113-0.6932 0.111-2.1224 2.93-2.9695 4.705-3.0048 4.78-0.1036 0.22-0.0327 0.483 0.1688 0.621 0.2596 0.346 0.6522 2.981 0.8445 5.203 0.0238 0.274 0.2642 0.476 0.5372 0.453l0.01-1e-3z" clip-rule="evenodd" fill="#EB7D16" fill-rule="evenodd"/>
<path d="m29.562 197.75c0.0229-2e-3 0.0455-7e-3 0.0681-0.012 0.2666-0.065 0.4283-0.336 0.3631-0.601l-0.5362-2.165c0.0457-0.484 0.2776-2.917 0.3888-4.299 0.0226-0.273-0.1805-0.512-0.4545-0.536-0.2744-0.018-0.5138 0.182-0.5342 0.457-0.1244 1.533-0.3977 4.367-0.3977 4.367-0.0042 0.056-2e-4 0.113 0.0115 0.167l0.558 2.247c0.0608 0.244 0.2914 0.401 0.5331 0.375z" clip-rule="evenodd" fill="#EB7D16" fill-rule="evenodd"/>
<path d="m33.324 194.39c0.0468-5e-3 0.0937-0.018 0.1409-0.037 0.2523-0.106 0.3716-0.397 0.2645-0.65-0.0897-0.213-0.9172-2.107-2.2702-2.657-0.2514-0.106-0.5443 0.016-0.6471 0.272-0.1051 0.253 0.0179 0.543 0.2722 0.647 0.8277 0.337 1.5294 1.646 1.7293 2.123 0.0871 0.207 0.2976 0.325 0.5104 0.302z" clip-rule="evenodd" fill="#EB7D16" fill-rule="evenodd"/>
<path d="m129.17 267.76c4.449 0.371 8.681-3.382 14.177-1.49 5.494 1.891 7.1 10.193 10.143 13.659 3.043 3.465 7.686 7.911 10.53 10.669 10.261 9.949 5.399 17.117-0.266 15.272-3.417-1.114-13.763-9.459-16.87-11.111s-14.759-3.492-17.515-12.295-6.455-14.185-0.199-14.704z" clip-rule="evenodd" fill="#FCD250" fill-rule="evenodd"/>
<path d="m129.66 279.83c3.11 1.625 6.568 3.699 10.092 4.484 2.502 1.219 4.772 2.804 7.17 4.351 1.548 0.999 3.309 1.821 4.664 3.043 1.345 1.213 2.418 2.76 3.529 4.179 1.862 2.378 3.435 5.161 5.827 7.005 2.277 1.754 3.573 2.542 5.663 3.132-4.962 2.31-16.672-9.65-19.725-11.273-3.106-1.651-14.757-3.493-17.514-12.296-0.372-1.192-0.763-2.32-1.145-3.383 0.48 0.253 0.959 0.507 1.439 0.758z" clip-rule="evenodd" fill="#FCBD24" fill-rule="evenodd"/>
<path d="m73.602 89.795c-8.0874 0.1623-14.586 6.1614-14.202 11.537 0.384 5.376 4.0963 17.306 4.0963 17.306l12.571-13.792-2.4657-15.051z" clip-rule="evenodd" fill="#1273EB" fill-rule="evenodd"/>
<path d="m74.539 85.733c-6.4381-3.8823-19.676 1.1259-20.838 2.1902-1.1631 1.0644 4.9706 2.1271 7.3847 2.355 2.413 0.228 3.3504 3.6749 4.9766 4.8926 1.6272 1.2176 15.783-5.3269 8.477-9.4378z" clip-rule="evenodd" fill="#FCBD24" fill-rule="evenodd"/>
<path d="m58.754 89.965c-2.6893-0.4454-5.9264-1.2434-5.0531-2.042 0.6055-0.5533 4.4862-2.1749 8.9757-3.056-0.673 1.8525-2.1598 3.5784-3.9226 5.098z" clip-rule="evenodd" fill="#FCD250" fill-rule="evenodd"/>
<path d="m65.941 88.876c-5.4913 2.3318-8.3773 8.7406-6.8841 12.003 1.4951 3.261 12.354-8.7012 12.354-8.7012l-5.47-3.3014z" clip-rule="evenodd" fill="#FCBD24" fill-rule="evenodd"/>
<path d="m61.674 49.441c0.4333 1.339-2.6369 5.2484-4.5852 6.3712-2.7087-1.3674-11.874-9.4697-11.874-9.4697l1.0638-1.7609 15.395 4.8594z" clip-rule="evenodd" fill="#0161CD" fill-rule="evenodd"/>
<path d="m42.644 47.268c-0.7189-0.7168-1.0929-1.7785-0.9323-2.8331 0.5397-3.5428 6.8096-4.2259 7.0618-0.2766 0.14 2.1934-2.3067 4.2474-4.4316 3.9579-0.6691-0.0906-1.2509-0.4025-1.6979-0.8482z" clip-rule="evenodd" fill="#5EB2FC" fill-rule="evenodd"/>
<path d="m70.043 244.63c-0.1112 7.409-0.4231 15.443 9.4043 29.675 0 0 10.898 37.544-5.0028 22.277-9.8539-9.461-20.299-24.945-29.478-39.155 6.4409-4.213 12.845-8.654 20.698-10.826 1.5976-0.442 3.0521-1.107 4.379-1.971z" clip-rule="evenodd" fill="#FCD250" fill-rule="evenodd"/>
<path d="m77.358 283.34c-3.4164-9.343-6.5703-18.715-9.6875-28.159-0.1787-0.542-0.9474-0.911-1.4764-0.644-3.5305 1.788-7.4042 3.113-11.093 4.556-2.4349 0.951-4.8939 1.835-7.4052 2.529-0.9211-1.407-1.8338-2.81-2.7309-4.199 6.4418-4.214 12.846-8.655 20.699-10.828 1.5977-0.44 3.0511-1.106 4.378-1.97-0.11 7.41 5.8742 29.418 10.792 29.101 0 0 4.1346 19.602 1.5775 25.054-1.2706-5.306-3.26-10.534-5.0536-15.44z" clip-rule="evenodd" fill="#FCBD24" fill-rule="evenodd"/>
<mask id="c" x="20" y="197" width="52" height="63" mask-type="alpha" maskUnits="userSpaceOnUse">
<path d="m20.332 202.18 45.222-4.753 6.0122 57.202-45.222 4.753-6.0122-57.202z" clip-rule="evenodd" fill="#fff" fill-rule="evenodd"/>
</mask>
<g mask="url(#c)">
<path d="m28.701 204.24c8.4781-9.178 19.668-0.585 34.506 18.976 6.8799 9.071 6.9328 15.009 6.8366 21.412-1.3279 0.864-2.7813 1.53-4.379 1.97-7.8529 2.173-14.257 6.614-20.698 10.828-5.6321-8.717-10.789-16.955-15.04-23.026-11.179-15.967-9.7015-20.983-1.2243-30.16z" clip-rule="evenodd" fill="#5EB2FC" fill-rule="evenodd"/>
</g>
<path d="m54.121 246.75c2.6943-1.362 6.9164-2.205 8.9533-4.57 3.8469-4.469-6.7156-12.272-9.5339-14.519-8.5327-6.802-18.456-11.756-28.59-15.686-0.5397-0.209-1.0853-0.406-1.6278-0.611 1.1503-2.268 2.9851-4.528 5.3783-7.119 8.4782-9.178 19.668-0.585 34.506 18.977 6.8797 9.069 6.9327 15.007 6.8366 21.411-1.327 0.864-2.7814 1.529-4.379 1.971-7.853 2.172-14.257 6.612-20.699 10.827-0.8897-1.377-1.766-2.74-2.6305-4.087 3.8391-2.352 7.7677-4.562 11.786-6.594z" clip-rule="evenodd" fill="#1273EB" fill-rule="evenodd"/>
<path d="m69.945 239.34c-1.5417 4.809-23.43 14.243-25.083 14.804-1.6536 0.56-3.9119 4.444-0.6304 5.827 3.2825 1.382 2.9176 0.713 2.9176 0.713s17.408-7.984 21.195-10.79c3.7866-2.804 5.203-8.423 1.6005-10.554z" clip-rule="evenodd" fill="#FCD250" fill-rule="evenodd"/>
<path d="m59.677 178.96c3.5322-5.847 3.0722-25.09 16.22-28.009 9.7-2.153 29.153 13.322 34.336 29.377-2.832 5.786-7.678 10.862-11.985 15.221-6.6025 6.684-12.967 13.68-20.824 18.938-8.9764 6.006-18.917 9.574-29.747 9.902-1.4203 0.043-2.8377 0.037-4.2539-5e-3 -1.9404-0.39-3.8858-0.876-5.8311-1.466-11.604-3.219-15.971-9.445-13.018-13.648 11.221-17.637 32.069-28.195 35.102-30.31z" clip-rule="evenodd" fill="#5EB2FC" fill-rule="evenodd"/>
<path d="m98.248 195.54c-6.6026 6.683-12.967 13.679-20.824 18.936-1.2899 0.863-2.5998 1.669-3.9288 2.428 3.7561-4.262 6.2347-9.668 6.3284-15.387 0.1791-11.048-8.2993-21.638-18.599-26.594 2.2229-7.924 3.7699-21.562 14.672-23.981 9.701-2.154 29.153 13.32 34.336 29.376-2.832 5.786-7.678 10.862-11.985 15.222z" clip-rule="evenodd" fill="#1273EB" fill-rule="evenodd"/>
<path d="m63.783 162.39c-1.463 8.209-0.5454 15.093 1.892 18.001 2.4373 2.908 18.803 8.94 23.016 26.707 4.2125 17.769 37.639-25.027 37.639-25.027l-16.185-34.617-46.362 14.936z" clip-rule="evenodd" fill="#5EB2FC" fill-rule="evenodd"/>
<path d="m92.619 192.6c2.7611-2.497 4.3985-7.879 5.0544-11.578 0.0474-0.066 0.0839-0.139 0.1033-0.222 1.8052-7.393 1.2254-16.133-0.2338-23.521-0.3252-1.649-0.7549-3.48-1.3212-5.338l13.924-4.485 16.186 34.617s-33.428 42.794-37.64 25.026c-1.6542-6.975-5.1819-12.135-9.0032-16.013 0.0106 5e-3 0.0212 0.01 0.0311 0.018 4.2382 3.559 9.1097 4.925 12.9 1.496z" clip-rule="evenodd" fill="#1273EB" fill-rule="evenodd"/>
<path d="m118.9 250.27c5.256 7.463 5.014 15.614 12.611 18.777 7.657 3.19 9.012 5.699 8.967 10.8-0.076 8.776-3.134 7.76-22.88 0.473-4.854-1.791-8.463-3.109-11.427-4.261 9.529-3.646 13.966-14.89 12.729-25.789z" clip-rule="evenodd" fill="#FCD250" fill-rule="evenodd"/>
<path d="m120.9 278.42c-0.332 0.933-0.681 1.838-1.045 2.728-0.73-0.269-1.476-0.545-2.257-0.833-4.855-1.791-8.464-3.109-11.428-4.261 9.529-3.645 13.966-14.89 12.729-25.789 3.016 4.282 4.223 8.789 6.139 12.451-0.407 5.458-2.562 11.263-4.138 15.704z" clip-rule="evenodd" fill="#FCBD24" fill-rule="evenodd"/>
<path d="m118.25 274.09c3.908 1.718 7.632 3.772 11.413 5.747 3.107 1.624 6.562 3.697 10.083 4.482 0.019 0.01 0.04 0.017 0.059 0.027-1.65 3.49-6.936 1.61-22.204-4.023-4.854-1.792-8.463-3.11-11.428-4.262 2.552-0.975 4.734-2.5 6.544-4.412 1.92 0.911 3.844 1.697 5.533 2.441z" clip-rule="evenodd" fill="#FCBD24" fill-rule="evenodd"/>
<path d="m82.354 242.39c3.8287-6.193 20.889-5.729 31.631 2.709 2.079 1.634 3.653 3.384 4.914 5.174 1.237 10.899-3.2 22.143-12.729 25.79-9.0908-3.533-12.089-5.493-26.141-14.674-3.9758-2.565-1.5049-12.807 2.3248-18.999z" clip-rule="evenodd" fill="#5EB2FC" fill-rule="evenodd"/>
<path d="m94.802 252.7c-2.2901 5e-3 -4.4998-0.355-6.7154-0.723-3.4102-1.105-5.7863-3.106-7.6599-5.873 0.5764-1.328 1.2298-2.593 1.9276-3.722 3.8099-6.16 20.711-5.729 31.463 2.583-2.443 2.477-5.658 4.376-8.592 5.608-3.294 1.383-6.8488 2.119-10.424 2.127z" clip-rule="evenodd" fill="#1273EB" fill-rule="evenodd"/>
<path d="m80.454 254.97c1.7471 0.216 3.6651 0.201 5.3756-0.247 1.7282-0.452 2.8886-2.002 4.5014-2.509 2.2746-0.716 3.5154 2.595 4.8278 4.194 1.4406 1.757 2.9958 3.419 4.5696 5.056 1.9521 2.029 4.1821 5.381 7.1481 5.996 4.579 0.947 6.843-4.913 7.917-8.272 1.215-3.796 2.225-8.346 1.205-12.331 1.132 1.105 2.084 2.249 2.901 3.408 1.236 10.899-3.2 22.143-12.73 25.789-9.0908-3.532-12.089-5.492-26.141-14.673-1.7592-1.134-2.2538-3.774-1.9298-6.9 0.7686 0.224 1.5564 0.39 2.3551 0.489z" clip-rule="evenodd" fill="#1273EB" fill-rule="evenodd"/>
<path d="m72.763 234.32c3.4599-11.126 15.397-36.04 18.265-46.774 2.8668-10.734 1.8026-11.952-2.8969-22.559 0.7757-10.242 6.8259-17.282 13.306-21.447 0.45-0.029 0.899-0.055 1.348-0.084 0.094 0.251 0.263 0.472 0.52 0.585 0.807 0.354 1.668 0.454 2.547 0.459 0.206 0.404 0.637 0.724 1.113 0.706 1.749-0.065 3.453-0.338 5.16-0.476 1.315 0.288 2.618 0.716 3.867 1.261 4.182 2.253 7.682 4.11 10.4 8.347 2.505 3.902 4.497 8.104 6.189 12.412 0.853 3.545 1.38 7.166 1.529 10.811 0.291 7.126-0.794 14.301-3.132 21.038-2.39 6.878-6.909 11.832-10.056 18.275-1.817 3.715-3.157 7.702-4.68 11.545-0.541 1.363-1.089 2.725-1.642 4.086-1.648 2.499-2.712 5.128-6.395 10.416-12.417 20.324-22.611 22.224-28.176 18.46-5.563-3.764-10.727-15.933-7.2665-27.061z" clip-rule="evenodd" fill="#5EB2FC" fill-rule="evenodd"/>
<path d="m101.43 143.54c1.496-0.096 2.989-0.197 4.48-0.278 0.071 0 0.142 0 0.211-2e-3 -0.906 0.635-0.125 1.982 0.842 1.946 2.885-0.107 5.669-1.309 8.478-0.47 2.518 0.752 4.78 2.062 6.915 3.79 4.552 3.682 7.288 8.573 9.105 14.01 0.78 2.337 1.333 4.839 1.779 7.272 0.23 1.265 0.419 2.539 0.564 3.817 0.124 1.095 0.321 3.023 0.299 3.846-2.544-6.265-6.257-12.166-10.679-17.213-5.059-5.775-11.136-9.564-18.375-12.108-2.32-0.814-4.684-1.496-7.0775-2.056 1.119-0.949 2.2815-1.798 3.4585-2.554z" clip-rule="evenodd" fill="#1273EB" fill-rule="evenodd"/>
<path d="m80.454 254.97c1.7471 0.216 3.665 0.201 5.3756-0.247 1.7282-0.452 2.8885-2.002 4.5013-2.509 2.2747-0.716 3.5155 2.595 4.8279 4.194 0.3887 0.474 0.7856 0.94 1.19 1.401-6.9878 6.07-12.657 6.05-16.32 3.572-2.4366-1.648-4.7964-4.91-6.3884-8.988 2.0445 1.352 4.3717 2.275 6.8137 2.577z" clip-rule="evenodd" fill="#1273EB" fill-rule="evenodd"/>
<path d="m116.88 136.2s1.594 1.969 2.826 3.918c1.235 1.949-11.963 37.149-44.685 39.293-6.9057 0.316-11.015-3.71-12.93-8.375-0.9424-3.455-1.2099-9.588-0.0768-11.779 3.2526-5.178 40.841-18.774 40.841-18.774l14.025-4.283z" clip-rule="evenodd" fill="#194C80" fill-rule="evenodd"/>
<path d="m58.852 119.62c-0.2746-0.68-0.4661-1.353-0.6006-2.021-0.0096-1.029 0.106-2.101 0.3951-3.244 1.6049-6.361 10.332-19.72 9.7537-24.01-0.5786-4.29 17.095-23.555 36.999-13.447 5.147 1.5716 11.561 13.143 12.601 23.514-0.053 2.7-0.234 5.397-0.486 8.092-2.372 10.526 1.038 2.541 0.701 4.133-0.137 0.642-1.412 6.062-2.336 10.205-0.388 3.337-0.761 6.677-1.075 10.022-0.226 2.407-0.589 4.931-0.743 7.436-4.224 5.467-10.719 11.55-18.649 16.44-11.865 7.316-22.166 8.696-28.821 5.774-0.7208-1.137-1.3872-2.301-1.9645-3.518-0.7389-4.179-1.3524-8.371-1.0412-12.642 0.3394-4.664 1.8524-9.335 0.8939-14.006-0.9727-4.729-3.8644-8.363-5.6272-12.728z" clip-rule="evenodd" fill="#5EB2FC" fill-rule="evenodd"/>
<path d="m106.88 121.2c-3.51-6.35-8.7748-11.354-11.108-18.384 1.6001-8.8553 11.747-11.756 20.26-11.081 0.973 2.8238 1.677 5.7925 1.965 8.6701-0.052 2.7-0.233 5.398-0.485 8.093-2.372 10.526 1.038 2.54 0.7 4.132-0.135 0.642-1.412 6.061-2.336 10.205-0.387 3.337-0.76 6.677-1.074 10.022-0.226 2.408-0.589 4.931-0.742 7.436-3.305 5.05-7.278 8.679-10.755 11.266 4.756-9.507 8.87-20.783 3.575-30.359z" clip-rule="evenodd" fill="#1273EB" fill-rule="evenodd"/>
<path d="m96.055 112.29c1.9076 4.202 5.7258 6.338 10.21 6.813 1.446 0.154 4.468 0.38 6.495-0.38 3.384-0.852 5.575-4.175 5.862-7.595 0.38-4.512-2.304-8.74-5.023-12.096-2.677-3.3053-6.557-7.2523-11.12-7.4102-9.4541-0.3276-8.9988 14.996-6.4238 20.668z" clip-rule="evenodd" fill="#1273EB" fill-rule="evenodd"/>
<path d="m63.108 128.2c-0.8688-1.962-1.9449-3.811-2.9276-5.726 0.7177-0.012 2.0093 0.088 2.2264 0.145 7.5854 1.998 6.9127-1.733 10.51-4.22 5.194-3.592 13.956 0.638 19.155-2.853-1.5959 3.931-4.2176 7.371-8.5827 8.451-2.8706 0.709-5.9105 0.17-8.8288 0.636-3.1497 0.503-5.9596 1.953-8.9711 2.919-0.9843 0.316-1.8157 0.576-2.5804 0.648z" clip-rule="evenodd" fill="#1273EB" fill-rule="evenodd"/>
<path d="m118.05 252.03c0.148 11.713-10.315 23.258-16.269 21.841-2.4569-0.899-4.607-1.773-4.607-1.773 1.2054 4.092 5.15 9.021 14.418 4.622 9.268-4.4 10.827-10.296 11.094-19.269 0.359-12.108-8.704-12.354-8.704-12.354 0.481 0.416 0.98 0.852 1.449 1.266 1.631 1.436 2.59 3.493 2.619 5.667z" clip-rule="evenodd" fill="#FCD250" fill-rule="evenodd"/>
<path d="m74.78 277.3c0.0201-0.019 0.0401-0.039 0.0543-0.067 0.8378-1.586 2.0005-2.568 3.6929-3.15 0.4891-0.168 1.0024-0.27 1.5189-0.358 3.1089 0.362 5.8871-3.896 10.83 0.159 5.6095 4.6 1.7354 11.623 4.2788 17.29 2.5441 5.665 17.037 14.959 17.603 24.223 0.568 9.263-3.842 9.887-11.273 1.847-7.4315-8.039-15.32-6.555-23.381-17.773-5.5436-7.713-5.5077-16.986-3.3237-22.171z" clip-rule="evenodd" fill="#FCD250" fill-rule="evenodd"/>
<path d="m86.624 298.79c5.032-0.856 10.025-0.722 14.973 4e-3 4.938 4.941 10.805 10.78 11.161 16.608 0.568 9.263-3.843 9.887-11.273 1.847-7.1091-7.69-14.637-6.675-22.333-16.392 2.4089-0.95 4.9292-1.635 7.472-2.067z" clip-rule="evenodd" fill="#FCBD24" fill-rule="evenodd"/>
<path d="m84.053 304.6c3.0767 1.731 6.2049 3.367 9.2935 5.077 3.0482 1.688 5.7214 3.971 8.8061 5.604 1.967 1.042 4.471 2.12 6.522 0.665 1.844-1.308 2.386-3.864 2.252-6.118 1.033 1.838 1.718 3.705 1.831 5.571 0.568 9.264-3.843 9.887-11.273 1.847-6.6179-7.159-13.599-6.774-20.741-14.525 1.1646 0.672 2.2792 1.299 3.3096 1.879z" clip-rule="evenodd" fill="#FCBD24" fill-rule="evenodd"/>
<path d="m76.469 86.898c9.4839-0.6419 20.856-7.4901 27.059-15.222 6.201-7.7306 10.999-24.907-2.067-38.616-13.067-13.708-30.398-10.261-39.477-3.7612-11.337 8.1155-16.536 28.225-7.5069 41.226 9.0284 13 15.377 18.272 21.992 16.374z" clip-rule="evenodd" fill="#1273EB" fill-rule="evenodd"/>
<path d="m82.162 85.854c2.132-2.1496 4.1728-4.3822 6.1175-6.668 3.4636-4.0693 6.6085-8.3776 9.409-12.93 2.5886-4.2066 4.4976-9.0417 7.6316-12.892 0.709 1.4126 0.687 3.6592 0.784 4.9601 0.234 3.0865 0.162 6.2001-0.08 9.2833-9e-3 0.1035-0.021 0.2073-0.029 0.3117-0.767 1.4119-1.602 2.6801-2.468 3.7586-4.9953 6.2282-13.348 11.877-21.365 14.177z" clip-rule="evenodd" fill="#0161CD" fill-rule="evenodd"/>
<path d="m72.7 164.72c0.0726-8e-3 0.1436-0.03 0.2088-0.07 0.2332-0.144 0.3065-0.451 0.1624-0.684-0.16-0.26-0.3516-0.561-0.5662-0.9-2.2806-3.589-7.6193-11.993-5.6723-19.633 0.4154-1.635 1.0064-3.282 1.579-4.876 1.829-5.099 3.7222-10.372 0.777-16.811-3.3025-7.227-3.2666-12.3 0.1254-16.964 2.9923-4.116 6.2546-9.6983 4.9124-16.394-0.0545-0.2698-0.337-0.4412-0.585-0.39-0.2678 0.0543-0.4434 0.3161-0.39 0.585 1.2673 6.3171-1.8671 11.663-4.7407 15.615-3.6311 4.992-3.698 10.364-0.225 17.959 2.776 6.073 0.9538 11.152-0.8094 16.064-0.5803 1.615-1.1789 3.286-1.6076 4.967-2.0522 8.056 3.4489 16.713 5.7982 20.41 0.2122 0.336 0.4013 0.632 0.558 0.889 0.1041 0.167 0.291 0.252 0.475 0.233z" clip-rule="evenodd" fill="#0161CD" fill-rule="evenodd"/>
<path d="m93.545 75.747c-4.01 4.0846-16.834 13.748-27.83 8.026-1.7733-1.5844-1.3047 2.7886 3.0775 4.3209 4.3831 1.5313 16.156 1.971 23.982-8.1796 8.5739-11.123 0.7696-4.1673 0.7696-4.1673z" clip-rule="evenodd" fill="#C8E7FA" fill-rule="evenodd"/>
<path d="m99.113 83.287c-4.7875 4.1975-5.658 24.433 2.9456 23.345 10.282-1.299 9.031-9.1441 9.031-9.1441s-1.713 11.516-9.72 12.864c-6.2219 1.047-9.8097-1.558-11.96-5.537-3.6221-6.6999-1.4796-22.066 5.7742-25.452 7.2553-3.3859 5.6623 0.5763 5.6623 0.5763l-1.3423 2.3924" clip-rule="evenodd" fill="#194C80" fill-rule="evenodd"/>
<path d="m145.2 122.5c-7.398-6.321-10.719-25.586-28.743-38.44-18.023-12.852-13.816-4.6372-21.592-0.4595-7.7748 4.1786-4.4862 24.37 3.2971 24.042 7.784-0.329 12.033 6.84 18.532 13.433 6.496 6.593 11.848 10.167 11.848 10.167l12.268 2.446 4.39-11.189z" clip-rule="evenodd" fill="#5EB2FC" fill-rule="evenodd"/>
<path d="m118.92 85.938c1.001 2.3231 1.412 5.1004 1.192 6.687-0.857 6.2016-10.036 2.5329-13.45 0.9541-4.86-2.2472-9.5925-4.9785-14.081-7.9105 0.6176-0.8683 1.3691-1.5827 2.279-2.0715 7.7756-4.1787 3.5691-12.393 21.593 0.4595 0.858 0.6116 1.673 1.2419 2.467 1.8814z" clip-rule="evenodd" fill="#1273EB" fill-rule="evenodd"/>
<path d="m132.29 120.56c8.173-4.398 12.22 7.546 7.939 13.007l-11.685-2.33s-0.882-0.593-2.349-1.72c1.126-3.823 2.936-7.256 6.095-8.957z" clip-rule="evenodd" fill="#1273EB" fill-rule="evenodd"/>
<path d="m160.72 161.1c-5.773-29.406-14.793-45.433-25.078-38.836s-8.627 13.719-0.866 23.709c7.763 9.991 16.519 23.106 16.519 23.106l9.425-7.979z" clip-rule="evenodd" fill="#5EB2FC" fill-rule="evenodd"/>
<path d="m151.3 169.08c-3.802 4.043-6.08 8.539-5.878 10.811 0.204 2.27 2.564 5.598 5.087 5.884 2.524 0.289 5.336-4.129 5.576-5.009 0.241-0.88 0.474-6.315 0.474-6.315l-5.259-5.371z" clip-rule="evenodd" fill="#FCBD24" fill-rule="evenodd"/>
<path d="m150.69 175.41c-0.177 0.106-0.236 0.249-0.228 0.387-1.628 0.807-3.3 1.713-4.923 2.72 0.517-2.448 2.616-6.098 5.761-9.441l4.097 4.184c-1.583 0.689-3.226 1.266-4.707 2.15z" clip-rule="evenodd" fill="#FCD250" fill-rule="evenodd"/>
<mask id="b" x="148" y="179" width="25" height="18" mask-type="alpha" maskUnits="userSpaceOnUse">
<path d="m148.92 181.47 21.646-2.276 1.623 15.436-21.646 2.275-1.623-15.435z" clip-rule="evenodd" fill="#fff" fill-rule="evenodd"/>
</mask>
<g mask="url(#b)">
<path d="m149.77 187.11c0.857-3.267 4.877-6.34 5.43-6.299 0.36 0.025 1.54 1.597 2.317 2.686l0.213-1.775 3.183 1.123 2.111-0.686-0.163-0.755 6.73-1.401c0.219 2.313 1.635 5.516 1.842 7.491 0.093 0.883-1.186 1.705-2.629 2.343-0.346 1.77-2.064 3.361-3.811 3.742-6e-3 1.219-2.484 2.066-5.057 2.337-1.122 0.119-1.933-0.507-2.489-1.249-0.235 0.066-0.492 0.112-0.778 0.128-4.2 0.239-7.757-4.419-6.899-7.685z" clip-rule="evenodd" fill="#FCBD24" fill-rule="evenodd"/>
</g>
<path d="m169.82 183.26c-0.18 0.778 0.068 1.518-0.966 1.877 0.787-0.273-2.021-0.387-1.76-0.438 0.044-5e-3 0.081-0.01 0.13-0.014-0.072 5e-3 -0.109 0.01-0.13 0.014-0.521 0.038-0.833 0.139-1.268 0.481-0.999 0.789-0.857 2.779-2.142 2.391-0.992-0.3-1.326-1.548-2.611-1.234-0.859 0.21-1.04 0.938-1.605 1.54-2.226 2.369-5.406 0.941-7.344-1.081-0.532-0.555-0.892-1.103-1.134-1.659 1.492-2.485 3.805-4.371 4.219-4.332 0.361 0.035 1.564 1.826 2.357 3.066l0.189-2.002 3.203 1.311 2.105-0.745-0.174-0.855 6.721-1.491c0.059 0.626 0.192 1.312 0.357 2.023-0.021 0.409-0.067 0.801-0.147 1.148z" clip-rule="evenodd" fill="#FCD250" fill-rule="evenodd"/>
<path d="m93.84 73.845c10.703-10.131 25.633-16.863 23.198-9.8952-2.434 6.9666-3.748 12.03-3.748 12.03s7.138 4.2341 6.247 10.45c-1.322 9.2308-13.569 5.7005-24.474-0.943-5.7671-3.6883-2.1696-10.76-1.2236-11.642z" clip-rule="evenodd" fill="#FCD250" fill-rule="evenodd"/>
<path d="m102.33 73.894c2.83-2.8897 5.824-5.6136 9.05-8.0562 0.759-0.5755 1.527-1.1247 2.302-1.6546 0.369-0.0559 0.711-0.0466 1.002 0.0545 1.02 0.3564 1.321 1.4378 1.419 2.4631-1.83 5.5065-2.809 9.2776-2.809 9.2776s5.197 3.0876 6.166 7.8575c-1.002 1.8729-3.782 2.5663-6.368 2.3193-2.958-0.2823-5.996-1.7348-8.632-3.0505-2.248-1.1221-4.4605-2.4722-6.3784-4.1399 0.1787-0.2902 0.365-0.5743 0.5449-0.8627 1.3437-1.3448 2.5325-3.0132 3.7035-4.2081z" clip-rule="evenodd" fill="#FCBD24" fill-rule="evenodd"/>
<path d="m81.243 35.964c-5.8799 9.3398-25.333 24.806-28.093 4.4016-7.8808 15.587-4.0302 32.909 11.478 40.815 15.508 7.9073 34.884-11.524 29.566-28.321-5.3189-16.797-12.951-16.896-12.951-16.896z" clip-rule="evenodd" fill="#C8E7FA" fill-rule="evenodd"/>
<path d="m57.992 67.811c4.1189 3.1316 9.5952 4.4062 14.672 3.412 5.0878-0.9952 9.6905-4.2532 12.321-8.7206 3.4658-5.8855 3.4741-14.359-0.463-20.018-0.1916-0.4544-0.3866-0.9136-0.5799-1.384-0.1428-0.3449 0.2904-0.6428 0.5734-0.4192 2.0581 1.6248 3.3489 3.7555 4.331 5.9539 1.8649 4.1679 3.3404 8.6874 3.2648 13.191-0.5255 7.3703-4.4058 14.096-11.572 17.047-8.1911 3.1172-20.536 1.0242-22.576-9.0839l0.0284 0.0221z" clip-rule="evenodd" fill="#92CDFA" fill-rule="evenodd"/>
<path d="m97.604 32.233c2.3164 1.4226 3.5175 2.8478 5.7805 6.3657 0.26 0.7328 0.429 1.0377 0.86 2.2715 0.516 1.4821-0.533 1.6869-2.221 1.442-1.998-0.2897-3.6181-2.416-4.6908-3.9453-1.0727-1.5292-2.5693-3.4744-2.4312-5.4517 0.1226-1.7615 1.1932-1.6105 2.7025-0.6822z" clip-rule="evenodd" fill="#5EB2FC" fill-rule="evenodd"/>
<path d="m102.26 40.052c-1.403 0.1192-4.5158-3.7566-5.1673-5.9083 1.9442-2.329 15.938-13.721 15.938-13.721l1.474 1.4357-12.245 18.194z" clip-rule="evenodd" fill="#0161CD" fill-rule="evenodd"/>
<path d="m111.92 18.016c0.86-0.5378 1.98-0.6616 2.97-0.2659 3.329 1.3283 2.574 7.5895-1.329 6.9409-2.167-0.3604-3.614-3.2088-2.851-5.2125 0.239-0.6314 0.674-1.1277 1.21-1.4625z" clip-rule="evenodd" fill="#5EB2FC" fill-rule="evenodd"/>
<path d="m67.283 26.185c1.5805-0.7573 4.1107-1.7593 5.9559 0.098 3.5344 3.5591-3.8715 7.5742-7.8923 7.4226-5.923-0.2251-5.4182-3.9935 1.9364-7.5206z" clip-rule="evenodd" fill="#5EB2FC" fill-rule="evenodd"/>
<path d="m70.227 25.584c-0.3348-0.1529-7.1537-11.542-7.7026-11.78-0.5488-0.237-1.8591 0.67-1.8591 0.67s1.8208 13.708 2.439 15.399c0.6171 1.6907 3.9468 2.1452 5.8656 1.0094s1.8941-4.3941 1.2571-5.2984z" clip-rule="evenodd" fill="#0161CD" fill-rule="evenodd"/>
<path d="m58.882 12.092c0.1597-0.2501 0.3455-0.4818 0.5561-0.6879 1.8489-1.8102 4.8232-0.9876 5.4791 1.5125 0.7365 2.8074-2.448 7.2647-5.3978 4.8096-1.6021-1.3328-1.734-3.9182-0.6374-5.6342z" clip-rule="evenodd" fill="#5EB2FC" fill-rule="evenodd"/>
<path d="m113.74 149.02c5.383 4.283 12.803 14.985 10.513 21.026-2.29 6.044-10.844 12.627-14.079 13.899-3.234 1.271-9.592-20.872-9.592-20.872l13.158-14.053z" clip-rule="evenodd" fill="#194C80" fill-rule="evenodd"/>
<path d="m162.23 166.15s6.885 10.36 7.378 13.945c0.492 3.585-17.867 9.103-19.2 7.301-1.272-1.72 1.375-14.094-0.119-18.23 4.78-0.781 7.091-1.765 11.87-3.235 0.025 0.073 0.046 0.149 0.071 0.219z" clip-rule="evenodd" fill="#FCD250" fill-rule="evenodd"/>
<path d="m133.84 146.74c11.305-11.531 28.571-8.158 26.831-4.289-1.72 3.825-0.563 17.21 1.491 23.476-4.78 1.469-7.091 2.452-11.87 3.234-0.071-0.196-0.149-0.38-0.239-0.537-6.357-12.055-18.91-19.25-16.213-21.884z" clip-rule="evenodd" fill="#FCD250" fill-rule="evenodd"/>
<path d="m54.132 52.87c0.0609-0.4348 0.6038-0.5884 0.8638-0.2386 0.8842 1.1901 2.0682 2.1807 3.5686 2.8516 1.9106 0.8529 3.9071 0.8009 5.8464 0.2814 0.3618-0.0974 0.6808 0.2492 0.5862 0.6211-0.487 1.9104-0.7557 3.8028-0.7771 5.5215-0.0591 4.719 2.2072 12.352 6.6441 15.429 0.4339 0.3013 0.2017 0.9904-0.317 0.9252-3.1094-0.3961-6.0238-1.2612-8.6725-3.5871-3.2945-2.8935-5.6132-6.9885-6.8836-11.212-1.1066-3.6785-1.3365-7.2148-0.8589-10.592z" clip-rule="evenodd" fill="#F9FAFB" fill-rule="evenodd"/>
<path d="m114.88 18c1.321 0.2453 2.024 2.0205 1.006 2.9933-0.089 0.0847-0.189 0.1566-0.293 0.2208-0.066 0.0763-0.138 0.1482-0.218 0.2049-0.428 0.3013-0.959 0.3401-1.444 0.1618-0.624-0.231-1.02-0.8199-1.116-1.4624-0.181-1.2086 0.82-2.3496 2.065-2.1184z" clip-rule="evenodd" fill="#92CDFA" fill-rule="evenodd"/>
<path d="m60.476 11.689c0.6832-0.4831 1.6856-0.3984 2.263 0.2066 0.6881 0.721 0.5262 1.8783-0.2543 2.4691-0.7377 0.5582-1.7974 0.4252-2.3254-0.3509-0.0263-0.0394-0.0433-0.0859-0.0656-0.1268-0.4713-0.7147-0.3394-1.6888 0.3823-2.198z" clip-rule="evenodd" fill="#92CDFA" fill-rule="evenodd"/>
<path d="m42.833 44.155c-0.0823-0.5343 0.1675-1.0372 0.5823-1.3292 0.0171-0.0189 0.0298-0.0413 0.0489-0.0604 0.4269-0.4068 0.9596-0.4759 1.5236-0.4568 0.3332 0.0123 0.7575 0.3568 0.8386 0.6791 0.1994 0.7875 0.0507 1.6397-0.6285 2.1042-0.265 0.2149-0.6084 0.3244-1.0036 0.2855-0.0427-0.0046-0.0781-0.025-0.1192-0.0337-0.6037-0.0995-1.1417-0.5397-1.2421-1.1887z" clip-rule="evenodd" fill="#92CDFA" fill-rule="evenodd"/>
<path d="m79.385 217.89c0.1612-0.017 0.311-0.112 0.3904-0.267 8.8382-17.097 12.997-34.726 12.493-40.377-0.0248-0.275-0.2661-0.474-0.5401-0.451-0.2487 0.045-0.4748 0.266-0.4511 0.539 0.4092 4.573-2.8949 21.478-12.384 39.833-0.1251 0.245-0.0303 0.544 0.2133 0.671 0.0904 0.046 0.1865 0.061 0.2789 0.052z" clip-rule="evenodd" fill="#0161CD" fill-rule="evenodd"/>
<path d="m117.23 144.85c0.142-0.015 0.275-0.089 0.361-0.216 0.153-0.228 0.092-0.537-0.135-0.69-0.726-0.489-2.792-1.646-2.88-1.695-0.238-0.133-0.541-0.05-0.677 0.192-0.133 0.239-0.047 0.543 0.192 0.677 0.021 0.01 2.119 1.184 2.811 1.65 0.099 0.068 0.216 0.094 0.328 0.082z" clip-rule="evenodd" fill="#0161CD" fill-rule="evenodd"/>
<path d="m113.73 151.82c0.05-5e-3 0.102-0.019 0.15-0.041 0.251-0.112 0.363-0.405 0.252-0.656-1.25-2.792-2.994-4.076-3.068-4.13-0.221-0.159-0.531-0.111-0.693 0.111-0.16 0.222-0.112 0.533 0.11 0.695 0.016 0.011 1.61 1.196 2.743 3.731 0.091 0.2 0.298 0.312 0.506 0.29z" clip-rule="evenodd" fill="#0161CD" fill-rule="evenodd"/>
<path d="m108.54 158.44c0.038-4e-3 0.077-0.013 0.114-0.027 0.259-0.091 0.395-0.376 0.302-0.633-0.856-2.415-2.67-5.726-2.747-5.865-0.133-0.241-0.434-0.327-0.674-0.196-0.242 0.132-0.328 0.434-0.198 0.674 0.02 0.034 1.854 3.38 2.684 5.718 0.077 0.221 0.295 0.352 0.519 0.329z" clip-rule="evenodd" fill="#0161CD" fill-rule="evenodd"/>
<path d="m101.49 165.88c0.239-0.026 0.431-0.223 0.443-0.47 0.165-3.47-1.737-7.975-1.818-8.166-0.109-0.252-0.4-0.368-0.6513-0.262-0.2531 0.108-0.3703 0.4-0.2633 0.652 0.0197 0.044 1.8946 4.488 1.7406 7.729-0.014 0.273 0.198 0.506 0.472 0.52 0.026 1e-3 0.052-1e-3 0.077-3e-3z" clip-rule="evenodd" fill="#0161CD" fill-rule="evenodd"/>
<path d="m92.31 171.13c0.0219-2e-3 0.0447-6e-3 0.0673-0.011 0.2666-0.065 0.4293-0.335 0.3642-0.6-0.4973-2.033-2.0431-8.15-2.0431-8.15l-0.9628 0.244s1.5444 6.112 2.0413 8.142c0.0597 0.243 0.2905 0.401 0.5331 0.375z" clip-rule="evenodd" fill="#0161CD" fill-rule="evenodd"/>
<path d="m81.507 176.84c0.0368-3e-3 0.0721-0.011 0.108-0.024 0.2604-0.087 0.3995-0.37 0.311-0.629-1.2816-3.775-1.7616-8.189-1.0933-10.048 0.0925-0.258-0.0409-0.541-0.299-0.635-0.2558-0.09-0.5427 0.041-0.6352 0.3-0.8513 2.366-0.0754 7.28 1.0877 10.702 0.0748 0.224 0.295 0.358 0.5208 0.334z" clip-rule="evenodd" fill="#0161CD" fill-rule="evenodd"/>
<path d="m71.693 177.21c0.0388-4e-3 0.0782-0.012 0.1188-0.027 0.2576-0.094 0.3905-0.379 0.294-0.638-0.1291-0.357-0.2641-0.714-0.3982-1.071-1.0543-2.799-2.0493-5.444-1.2704-8.27 0.0728-0.264-0.0827-0.538-0.3458-0.611-0.2651-0.073-0.5383 0.082-0.612 0.347-0.865 3.136 0.2356 6.059 1.2987 8.884 0.1328 0.354 0.2665 0.708 0.3963 1.064 0.0804 0.219 0.2958 0.346 0.5186 0.322z" clip-rule="evenodd" fill="#0161CD" fill-rule="evenodd"/>
<path d="m66.265 175.15c0.0378-4e-3 0.0781-0.013 0.1158-0.027 0.2588-0.093 0.3928-0.377 0.2993-0.635-1.1578-3.218-1.6171-8.383-1.1441-8.992 0.2164-0.169 0.244-0.472 0.0754-0.688-0.1685-0.216-0.4912-0.244-0.7069-0.077-1.2589 0.985-0.0598 7.591 0.8417 10.094 0.0783 0.219 0.2961 0.349 0.5188 0.325z" clip-rule="evenodd" fill="#0161CD" fill-rule="evenodd"/>
<path d="m59.674 226.02c1.6141-0.17 3.0111-0.463 4.0594-0.907 0.2522-0.107 0.3704-0.398 0.2635-0.65-0.1059-0.252-0.394-0.372-0.6512-0.265-4.5535 1.928-17.741 0.843-24.261-1.368-0.2567-0.09-0.5408 0.049-0.6299 0.31-0.0874 0.26 0.0508 0.542 0.3115 0.63 4.9131 1.667 14.574 2.916 20.908 2.25z" clip-rule="evenodd" fill="#0161CD" fill-rule="evenodd"/>
<path d="m46.15 227.91c3.1825-0.335 5.9813-1.086 6.1563-1.134 0.2649-0.072 0.4212-0.345 0.3491-0.61-0.0731-0.265-0.3536-0.418-0.6098-0.349-0.0635 0.018-6.3984 1.719-10.717 1.135-0.2756-0.039-0.5219 0.153-0.5587 0.424-0.0376 0.274 0.1535 0.523 0.4248 0.56 1.5463 0.208 3.3025 0.148 4.9554-0.026z" clip-rule="evenodd" fill="#0161CD" fill-rule="evenodd"/>
<path d="m100.03 250.25c0.019-2e-3 0.037-5e-3 0.057-9e-3 3.326-0.732 5.001-2.818 6.621-4.834 0.582-0.722 1.181-1.469 1.843-2.128 0.195-0.194 0.196-0.507 3e-3 -0.702-0.195-0.194-0.51-0.193-0.703-2e-3 -0.701 0.698-1.32 1.467-1.916 2.21-1.583 1.969-3.078 3.828-6.0626 4.487-0.2674 0.058-0.4377 0.322-0.3772 0.591 0.0533 0.249 0.2876 0.413 0.5348 0.387z" clip-rule="evenodd" fill="#0161CD" fill-rule="evenodd"/>
<path d="m99.9 254.62c0.1133-0.012 0.2233-0.064 0.3083-0.152 2.111-2.224 5.089-6.1 5.119-6.138 0.166-0.219 0.125-0.53-0.091-0.698-0.218-0.167-0.531-0.126-0.698 0.092-0.029 0.039-2.975 3.873-5.05 6.059-0.1881 0.2-0.1813 0.514 0.0175 0.702 0.1105 0.104 0.255 0.149 0.3942 0.135z" clip-rule="evenodd" fill="#0161CD" fill-rule="evenodd"/>
<path d="m140.13 149.04c0.116-0.012 0.227-0.065 0.313-0.157 5.9-6.383 15.141-6.467 18.207-4.385 0.226 0.155 0.535 0.097 0.69-0.131 0.154-0.227 0.094-0.536-0.132-0.69-3.192-2.167-12.964-2.53-19.495 4.531-0.185 0.202-0.173 0.517 0.027 0.703 0.11 0.1 0.253 0.143 0.39 0.129z" clip-rule="evenodd" fill="#EB7D16" fill-rule="evenodd"/>
<path d="m57.764 169.85c0.1741-0.018 0.3344-0.128 0.4067-0.302 0.1051-0.253-0.014-0.544-0.2674-0.649-3.7004-1.542-13.035-10.565-13.13-10.656-0.196-0.191-0.5092-0.186-0.7016 0.011-0.1906 0.196-0.1866 0.511 0.0104 0.702 0.3886 0.377 9.5659 9.247 13.439 10.859 0.0789 0.033 0.1626 0.044 0.2431 0.035z" clip-rule="evenodd" fill="#EB7D16" fill-rule="evenodd"/>
<path d="m40.5 178.28c0.0269-2e-3 0.0544-8e-3 0.0807-0.016 0.2648-0.073 0.4192-0.346 0.3472-0.61-0.0275-0.098-0.6824-2.417-2.3361-3.198-0.2499-0.12-0.5441-0.01-0.6608 0.237-0.1168 0.248-0.0112 0.544 0.2364 0.661 1.24 0.586 1.7976 2.543 1.8028 2.564 0.0662 0.237 0.2931 0.387 0.5298 0.362z" clip-rule="evenodd" fill="#EB7D16" fill-rule="evenodd"/>
<path d="m41.476 176.9c0.2039-0.021 0.3814-0.169 0.4317-0.379 0.2532-1.073-0.8403-3.154-1.063-3.56-0.1299-0.241-0.4316-0.328-0.6733-0.198-0.2397 0.131-0.3285 0.434-0.1977 0.673 0.4757 0.872 1.0901 2.336 0.9668 2.856-0.0635 0.267 0.1024 0.534 0.3695 0.598 0.0566 0.013 0.1113 0.016 0.166 0.01z" clip-rule="evenodd" fill="#EB7D16" fill-rule="evenodd"/>
<path d="m157.67 194.48c0.121-0.013 0.236-0.069 0.322-0.167 0.947-1.08 0.914-2.19 0.867-3.728-8e-3 -0.249-0.016-0.516-0.021-0.799-3e-3 -0.273-0.23-0.494-0.505-0.488-0.267 0.01-0.492 0.231-0.489 0.504 6e-3 0.289 0.013 0.56 0.022 0.814 0.044 1.454 0.069 2.257-0.621 3.043-0.181 0.205-0.16 0.519 0.047 0.7 0.107 0.095 0.245 0.135 0.378 0.121z" clip-rule="evenodd" fill="#EB7D16" fill-rule="evenodd"/>
<path d="m164.64 193.39c0.25-0.027 0.446-0.24 0.443-0.498-0.018-2.119-0.563-4.124-0.585-4.209-0.073-0.265-0.346-0.419-0.612-0.347-0.264 0.072-0.419 0.344-0.347 0.61 6e-3 0.019 0.534 1.968 0.552 3.954 1e-3 0.275 0.226 0.495 0.5 0.493 0.017-1e-3 0.032-2e-3 0.049-3e-3z" clip-rule="evenodd" fill="#EB7D16" fill-rule="evenodd"/>
<path d="m168.79 189.2c0.197-0.021 0.372-0.159 0.428-0.362 0.649-2.354-0.481-3.647-0.53-3.7-0.184-0.204-0.498-0.22-0.702-0.037-0.204 0.184-0.22 0.498-0.036 0.701 0.029 0.035 0.808 0.969 0.31 2.771-0.073 0.265 0.082 0.538 0.346 0.612 0.062 0.017 0.125 0.021 0.184 0.015z" clip-rule="evenodd" fill="#EB7D16" fill-rule="evenodd"/>
<path d="m150.41 188.08c0.017-2e-3 0.033-3e-3 0.049-7e-3 0.269-0.056 0.441-0.318 0.385-0.588-0.744-3.604-0.591-9.497 0.311-11.898 0.097-0.257-0.033-0.543-0.29-0.638-0.255-0.096-0.544 0.032-0.639 0.29-0.971 2.584-1.142 8.633-0.353 12.448 0.051 0.253 0.286 0.419 0.537 0.393z" clip-rule="evenodd" fill="#EB7D16" fill-rule="evenodd"/>
<path d="m148.49 181.82c0.089-9e-3 0.177-0.043 0.254-0.102l1.162-0.908c0.216-0.17 0.254-0.482 0.086-0.698-0.169-0.216-0.48-0.255-0.698-0.085l-1.164 0.908c-0.215 0.169-0.253 0.481-0.084 0.698 0.109 0.139 0.279 0.204 0.444 0.187z" clip-rule="evenodd" fill="#EB7D16" fill-rule="evenodd"/>
<path d="m161.17 167.42c0.225-0.024 0.412-0.198 0.44-0.433 0.035-0.271-0.158-0.52-0.431-0.554-1.473-0.182-3.052-0.2-4.693-0.05l-7e-3 1e-3c-0.269 0.028-0.468 0.267-0.442 0.539 0.025 0.273 0.266 0.474 0.541 0.449 1.568-0.144 3.076-0.127 4.479 0.047 0.038 4e-3 0.076 5e-3 0.113 1e-3z" clip-rule="evenodd" fill="#EB7D16" fill-rule="evenodd"/>
<path d="m115.09 86.575c2.102-0.221 3.299-0.9421 3.589-1.1354 0.226-0.1535 0.287-0.4615 0.135-0.6899-0.153-0.2282-0.462-0.2873-0.69-0.1357-2.473 1.6626-9.304 2.2942-19.328-5.7119 11.78-13.479 15.186-14.915 16.174-14.568 0.418 0.1492 0.498 0.907 0.52 1.6296 8e-3 0.2737 0.238 0.4899 0.511 0.4812 0.266-0.0058 0.49-0.2375 0.481-0.5121-0.021-0.6935-0.065-2.1378-1.178-2.5337-1.414-0.5039-4.778 0.5224-17.596 15.24-0.089 0.1009-0.1323 0.2341-0.1202 0.3686 0.0111 0.1336 0.0764 0.2574 0.1809 0.343 8.1375 6.6297 13.916 7.5828 17.322 7.225z" clip-rule="evenodd" fill="#EB7D16" fill-rule="evenodd"/>
<path d="m100.99 79.015c0.036-0.0039 0.074-0.0118 0.111-0.0247 0.063-0.0217 6.351-2.1829 9.761-1.7148 0.275 0.0385 0.522-0.1533 0.561-0.4239 0.036-0.2713-0.154-0.5218-0.426-0.5595-3.642-0.5032-9.956 1.6667-10.221 1.76-0.26 0.0897-0.397 0.3725-0.306 0.6314 0.076 0.2223 0.295 0.3551 0.52 0.3315z" clip-rule="evenodd" fill="#EB7D16" fill-rule="evenodd"/>
<path d="m48.495 260.58c0.0417-4e-3 0.085-0.014 0.1265-0.03 7.5336-2.905 11.832-5.503 15.285-7.592 1.6857-1.018 3.1407-1.898 4.6493-2.613 0.248-0.118 0.3546-0.414 0.2371-0.662-0.1177-0.249-0.4172-0.353-0.6625-0.237-1.5543 0.738-3.0292 1.629-4.7376 2.662-3.4204 2.069-7.6778 4.642-15.129 7.515-0.256 0.099-0.3827 0.386-0.2844 0.642 0.0828 0.214 0.297 0.338 0.5158 0.315z" clip-rule="evenodd" fill="#EB7D16" fill-rule="evenodd"/>
<path d="m112.71 276.68c0.024-2e-3 0.048-7e-3 0.071-0.013 7.045-1.801 9.513-10.903 10.358-16.17 0.043-0.272-0.141-0.526-0.412-0.569-0.273-0.045-0.525 0.141-0.569 0.411-0.807 5.026-3.128 13.706-9.622 15.366-0.266 0.067-0.426 0.338-0.357 0.604 0.06 0.241 0.29 0.397 0.531 0.371z" clip-rule="evenodd" fill="#EB7D16" fill-rule="evenodd"/>
<path d="m74.372 279.06c0.1631-0.017 0.3148-0.114 0.3928-0.271 0.6436-1.29 2.7112-4.521 4.5466-4.002 0.2599 0.072 0.5367-0.079 0.6135-0.343 0.0748-0.264-0.0777-0.538-0.342-0.613-2.9935-0.853-5.5977 4.295-5.7074 4.513-0.1209 0.247-0.0214 0.544 0.2228 0.667 0.0881 0.044 0.1832 0.059 0.2737 0.049z" clip-rule="evenodd" fill="#EB7D16" fill-rule="evenodd"/>
<path d="m78.114 278.46c0.173-0.018 0.3325-0.128 0.4057-0.301 0.3955-0.935 0.879-1.864 1.4362-2.761 0.1445-0.233 0.0722-0.539-0.1603-0.684-0.2283-0.144-0.5388-0.075-0.684 0.16-0.5839 0.94-1.0908 1.916-1.5072 2.899-0.1062 0.253 0.0119 0.544 0.2644 0.65 0.08 0.034 0.1636 0.045 0.2452 0.037z" clip-rule="evenodd" fill="#EB7D16" fill-rule="evenodd"/>
<path d="m143.05 272.27c0.647-0.068 1.031-0.296 1.203-0.692 0.368-0.846-0.299-2.089-4.743-5.404-2.022-1.51-3.355-0.618-4.641 0.242-1.107 0.741-2.253 1.509-4.117 1.011-0.263-0.07-0.536 0.087-0.606 0.352-0.073 0.264 0.086 0.538 0.35 0.608 2.299 0.617 3.754-0.36 4.925-1.145 1.225-0.821 2.033-1.362 3.495-0.272 4.332 3.232 4.445 4.083 4.422 4.222-1e-3 -7e-3 -0.035 0.057-0.368 0.092-0.341 0.036-0.981 0.027-2.155-0.187-0.273-0.049-0.528 0.13-0.577 0.401-0.049 0.269 0.13 0.528 0.399 0.577 1.044 0.189 1.834 0.256 2.413 0.195z" clip-rule="evenodd" fill="#EB7D16" fill-rule="evenodd"/>
<path d="m128.01 129 7e-3 -1e-3c0.271-0.031 0.467-0.279 0.434-0.551-0.288-2.46-0.481-9.093 2.071-10.224 0.252-0.111 0.364-0.405 0.252-0.656-0.11-0.25-0.399-0.366-0.655-0.252-3.739 1.657-2.7 10.857-2.654 11.249 0.032 0.27 0.275 0.464 0.545 0.435z" clip-rule="evenodd" fill="#0161CD" fill-rule="evenodd"/>
<path d="m114.27 159.6 3e-3 -6e-3c-0.203 0.096-0.055 0.014 0.025-0.029 0.019-0.022 0.037-0.043 0.053-0.067 0.112-0.139 0.213-0.282 0.32-0.422 0.267-0.353 0.766-0.477 1.174-0.354 0.437 0.133 0.701 0.489 0.779 0.932 0.179 1.024-0.587 1.817-1.417 2.252-0.579 0.305-1.415-0.116-1.617-0.705-0.227-0.668 0.067-1.296 0.68-1.601z" clip-rule="evenodd" fill="#69E781" fill-rule="evenodd"/>
<path d="m108.21 165.72c0.23-0.349 0.634-0.628 0.969-0.876 0.337-0.249 0.676-0.511 1.089-0.618 0.712-0.184 1.325 0.395 1.063 1.118-0.154 0.424-0.453 0.741-0.75 1.069-0.345 0.381-0.694 0.732-1.153 0.973-0.411 0.216-0.991-0.011-1.249-0.361-0.299-0.408-0.233-0.904 0.031-1.305z" clip-rule="evenodd" fill="#EC3A3B" fill-rule="evenodd"/>
<path d="m110.44 170.76c0.303-0.29 0.657-0.5 0.973-0.775 0.012-0.011 0.025-0.023 0.036-0.034 0.064-0.064 0.13-0.127 0.194-0.19 0.176-0.179 0.34-0.366 0.539-0.519 0.319-0.245 0.791-0.25 1.124-0.039 0.309 0.197 0.58 0.63 0.47 1.017-0.146 0.51-0.417 0.947-0.793 1.319-0.359 0.355-0.792 0.784-1.284 0.941-0.452 0.144-1.009 0.046-1.291-0.373-0.249-0.373-0.325-1.004 0.032-1.347z" clip-rule="evenodd" fill="#EC3A3B" fill-rule="evenodd"/>
<path d="m113.04 174.57c0.122-0.061 0.253-0.096 0.378-0.15 0.061-0.028 0.122-0.057 0.181-0.09 0.039-0.019 0.057-0.028 0.071-0.034 0.015-0.01 0.022-0.014 0.047-0.028 0.058-0.038 0.112-0.075 0.166-0.116 0.106-0.081 0.199-0.173 0.315-0.242 0.321-0.189 0.683-0.247 1.017-0.034 0.284 0.181 0.523 0.568 0.426 0.921-0.244 0.9-1.162 1.712-2.108 1.796-0.522 0.046-0.998-0.291-1.12-0.799-0.13-0.535 0.155-0.985 0.627-1.224z" clip-rule="evenodd" fill="#EC3A3B" fill-rule="evenodd"/>
<path d="m116.6 164.3c0.246-0.233 0.667-0.432 0.907-0.676 0.286-0.291 0.474-0.699 0.821-0.914 0.419-0.341 1.153-0.199 1.194 0.429 5e-3 0.071 0.055 0.354 0.025 0.525-0.026 0.147-0.075 0.29-0.136 0.427-0.125 0.289-0.303 0.567-0.492 0.82-0.402 0.537-0.98 1.002-1.642 1.14-0.412 0.087-0.863-0.243-1.007-0.611-0.17-0.436 0.012-0.838 0.33-1.14z" clip-rule="evenodd" fill="#69E781" fill-rule="evenodd"/>
<path d="m118.1 169.29c0.141-0.232 0.291-0.416 0.523-0.557 0.138-0.083 0.272-0.174 0.392-0.279 0.016-0.02 0.061-0.069 0.079-0.089 0.049-0.059 0.098-0.12 0.145-0.18 0.094-0.121 0.223-0.248 0.273-0.342 0.083-0.157 0.231-0.313 0.41-0.371 0.241-0.121 0.537-0.081 0.693 0.176 0.107 0.107 0.18 0.246 0.198 0.405 0.07 0.618-0.044 1.096-0.413 1.61-0.352 0.491-1.001 1.009-1.643 0.855-0.488-0.116-0.974-0.707-0.657-1.228z" clip-rule="evenodd" fill="#69E781" fill-rule="evenodd"/>
<path d="m123.55 53.421c0.678-0.2512 1.385-0.2642 2.1-0.2931 0.542-0.0228 1.057 0.2559 1.148 0.8356 0.092 0.5876-0.311 1.002-0.836 1.1476-0.691 0.1903-1.367 0.3951-2.09 0.3635-1.048-0.0457-1.307-1.6886-0.322-2.0536z" clip-rule="evenodd" fill="#69E781" fill-rule="evenodd"/>
<path d="m124.43 58.272c0.454 0.1121 0.856 0.3153 1.334 0.3173 0.428 0.0012 0.843-0.1329 1.265-0.1711 0.608-0.056 1.004 0.5761 0.668 1.0931-0.75 1.1527-2.903 1.2996-3.918 0.4299-0.618-0.5284-0.339-1.9121 0.651-1.6692z" clip-rule="evenodd" fill="#EC3A3B" fill-rule="evenodd"/>
<path d="m79.501 197.42c0.0099-1e-3 0.0199-2e-3 0.0287-4e-3 0.2131-0.039 0.3536-0.243 0.3152-0.455-0.8478-4.631-3.0545-9.306-6.2169-13.162-0.1374-0.17-0.386-0.191-0.5507-0.055-0.1677 0.137-0.1909 0.384-0.0547 0.551 3.0792 3.754 5.2295 8.303 6.0529 12.808 0.0363 0.202 0.2236 0.338 0.4255 0.317z" clip-rule="evenodd" fill="#0161CD" fill-rule="evenodd"/>
<path d="m82.513 193.73c0.1332-0.014 0.2563-0.096 0.315-0.227 0.0889-0.196 0.0032-0.428-0.1933-0.518-3.6412-1.658-6.4064-6.097-7.7804-9.699-0.0766-0.202-0.2976-0.306-0.5055-0.227-0.201 0.078-0.3029 0.304-0.2254 0.506 1.4294 3.746 4.3303 8.376 8.1869 10.131 0.0644 0.03 0.136 0.041 0.2027 0.034z" clip-rule="evenodd" fill="#0161CD" fill-rule="evenodd"/>
<mask id="a" x="89" y="271" width="26" height="54" mask-type="alpha" maskUnits="userSpaceOnUse">
<path d="m89.74 273.08 19.229-2.021 5.436 51.726-19.228 2.021-5.4366-51.726z" clip-rule="evenodd" fill="#fff" fill-rule="evenodd"/>
</mask>
<g mask="url(#a)">
<path d="m89.74 273.08c3.0398-0.229 4.0539-0.376 4.1768 1.884 0.1218 2.259 2.8188 11.445 6.858 18.443 3.561 6.171 8.94 13.58 10.264 16.097 1.325 2.517 3.295 10.971 3.247 12.362-0.05 1.392-2.766 1.215-4.353 0.974 0.724-1.863-3.943-17.703-11.082-26.283-7.138-8.58-7.6552-12.908-9.1109-23.477z" clip-rule="evenodd" fill="#EB7D16" fill-rule="evenodd"/>
</g>
</g>
<defs>
<filter id="d" x="6.8706" y="8.1062" width="165.32" height="320.13" color-interpolation-filters="sRGB" filterUnits="userSpaceOnUse">
<feFlood flood-opacity="0" result="BackgroundImageFix"/>
<feColorMatrix in="SourceAlpha" values="0 0 0 0 0 0 0 0 0 0 0 0 0 0 0 0 0 0 127 0"/>
<feOffset dx="-9"/>
<feGaussianBlur stdDeviation="1"/>
<feColorMatrix values="0 0 0 0 0.113725 0 0 0 0 0.14902 0 0 0 0 0.176471 0 0 0 0.0979959 0"/>
<feBlend in2="BackgroundImageFix" result="effect1_dropShadow"/>
<feBlend in="SourceGraphic" in2="effect1_dropShadow" result="shape"/>
</filter>
</defs>
</svg>
