<svg xmlns="http://www.w3.org/2000/svg" fill="none" viewBox="0 0 231 329">
<g filter="url(#e)">
<path d="m194.8 111.19c2.063 1.262 7.499 3.922 7.904 2.409 0.728-2.712-5.963-4.827-5.963-4.827l-2.019 1.837 0.078 0.581z" clip-rule="evenodd" fill="#5EB2FC" fill-rule="evenodd"/>
<mask id="d" x="0" y="167" width="6" height="9" mask-type="alpha" maskUnits="userSpaceOnUse">
<path d="m0 167.64h5.7275v7.49h-5.7275v-7.49z" clip-rule="evenodd" fill="#fff" fill-rule="evenodd"/>
</mask>
<g mask="url(#d)">
<path d="m5.7275 168.52c-0.979 2.211-3.936 7.491-5.13 6.478-2.141-1.818 2.158-7.363 2.158-7.363l2.705 0.362 0.267 0.523z" clip-rule="evenodd" fill="#0161CD" fill-rule="evenodd"/>
</g>
<path d="m85.98 32.233c-13.79-6.966-23.58-11.669-31.776 4.644-8.197 16.313-10.652 26.467-14.158 39.294-3.505 12.827 16.726 36.656 14.821 47.664s21.125 19.444 21.125 19.444l17.242-17.338 7.4736-64.365-14.728-29.343z" clip-rule="evenodd" fill="#92CDFA" fill-rule="evenodd"/>
<path d="m66.035 37.081c-5.446 3.086-7.222 8.435-8.813 14.099-1.475 5.259-3.394 10.34-5.467 15.392-3.231 7.872-6.789 15.673-9.592 23.721 4.66 12.042 14.028 25.889 12.704 33.542-1.904 11.008 21.125 19.444 21.125 19.444l17.242-17.339 7.4739-64.364-13.731-27.357c-7.306-0.744-14.977-0.518-20.942 2.862z" clip-rule="evenodd" fill="#5EB2FC" fill-rule="evenodd"/>
<path d="m71.31 136.57c10.827 6.159 43.622 3.268 43.622 3.268l2.921 1.403-0.448 18.105-13.425 16.557-17.174-2.515-17.494-18.522 1.999-18.296z" clip-rule="evenodd" fill="#113255" fill-rule="evenodd"/>
<path d="m63.755 67.489c-0.154-1.526-2.684-1.536-4.075-0.918-1.491 0.661-3.045 2.74-3.288 4.65-0.056 0.06-0.111 0.121-0.154 0.196-0.582 1.011 0.091 2.023 1.034 2.381 0.864 0.61 2.074 0.211 2.866-0.603 0.032-0.033 0.057-0.07 0.089-0.102 0.492-0.359 0.93-0.793 1.268-1.239 0.736-0.972 2.384-3.125 2.26-4.365z" clip-rule="evenodd" fill="#F59F26" fill-rule="evenodd"/>
<path d="m121.82 270.52c-3.348 8.469 0.981 12.985 0.118 25.703s7.949 15.732 5.261 19.083c-2.69 3.353-20.839 5.02-24.266-9.949-3.4247-14.968-10.771-25.25-6.4737-31.364 4.2967-6.116 8.0137-9.08 8.0137-9.08s8.9-1.2 9.249-0.472c0.35 0.727 8.098 6.079 8.098 6.079z" clip-rule="evenodd" fill="#92CDFA" fill-rule="evenodd"/>
<path d="m127.28 312.48c-1.433-2.849-5.978-6.957-5.346-16.263 0.864-12.717-3.098-18.245 0.249-26.714 0 0-3.739-1.318-6.134-3.112-1.284 5.142-2.135 10.415-2.328 15.949-0.372 10.729 2.007 26.731 13.559 30.14z" clip-rule="evenodd" fill="#5EB2FC" fill-rule="evenodd"/>
<path d="m55.756 221.8c-7.906-2.454-14.938 3.837-12.581 15.635 2.355 11.799 7.943 15.066 8.757 22.234 0.812 7.167 4.24 16.56 10.991 18.411 6.75 1.853 14.236 3.702 12.159-6.772-2.076-10.475-3.78-15.518-3.34-23.108 0.441-7.589 1.726-11.237-1.009-19.483s-14.977-6.917-14.977-6.917z" clip-rule="evenodd" fill="#92CDFA" fill-rule="evenodd"/>
<path d="m50.136 221.42c1.348 0 0.856-0.164-0.425 0.383-2.929 1.252-5.254 3.708-5.737 6.898-0.518 3.422-0.167 8.497 1.282 11.475 1.373 2.822 3.342 5.329 4.972 8.002 1.663 2.725 2.923 5.691 3.659 8.816 0.494 2.098 0.844 4.226 1.34 6.322 0.461 1.943 1.546 3.729 2.731 5.338 0.957 1.297 2.015 2.589 3.275 3.621-0.315-1.292-0.593-2.582-0.829-3.834-1.081-5.72-1.553-11.575-1.89-17.38-0.446-7.669 0.23-14.906 1.938-22.387 0.546-2.393 1.181-4.764 1.886-7.113 3.164 0.818 6.925 2.725 8.395 7.159 2.735 8.246 1.45 11.893 1.009 19.483-0.44 7.59 1.264 12.633 3.34 23.108 2.062 10.393-5.293 8.653-12.002 6.815-0.202-0.484-0.371-0.984-0.548-1.48-1.403-0.45-2.581-0.987-3.149-1.413-2.524-1.889-4.746-4.665-6.312-7.393-0.875-1.524-1.537-3.172-1.957-4.879-0.433-1.751-0.386-3.471-0.588-5.237-0.049-1.45-0.174-2.855-0.74-4.205-0.61-1.453-1.522-2.754-2.36-4.08-2.694-4.259-5.064-9.226-5.71-14.268-0.579-4.521 2.564-13.751 8.42-13.751z" clip-rule="evenodd" fill="#5EB2FC" fill-rule="evenodd"/>
<path d="m61.212 210.69c-1.398 4.231-2.979 8.4-6.062 11.811-8.337 9.217 5.559 25.593 12.996 18.943 2.209-1.977 4.613-4.565 7.33-7.393-7.752-5.052-12.345-13.855-14.264-23.361z" clip-rule="evenodd" fill="#92CDFA" fill-rule="evenodd"/>
<path d="m61.212 210.69c-0.771 2.333-1.607 4.642-2.71 6.819 0.747 5.067 2.442 9.769 4.449 14.45 1.346 3.137 0.906 4.438-1.51 6.67-0.739 0.682-1.633 1.571-2.605 2.367 3.036 2.229 6.601 2.871 9.31 0.448 2.209-1.977 4.613-4.565 7.33-7.393-7.752-5.052-12.345-13.855-14.264-23.361z" clip-rule="evenodd" fill="#5EB2FC" fill-rule="evenodd"/>
<path d="m103.45 196.64c-2.102-8.597-17.607-11.246-30.112-4.682-7.878 4.137-9.739 11.528-12.122 18.736 1.919 9.506 6.511 18.308 14.263 23.361 6.427-6.693 14.61-14.737 26.156-19.249 0 0 3.917-9.57 1.815-18.166z" clip-rule="evenodd" fill="#143B63" fill-rule="evenodd"/>
<path d="m95.998 189.55c-0.596 0.99-1.184 1.982-1.747 2.979-2.975 5.27-5.948 10.543-9.204 15.648-3.083 4.836-6.415 9.59-10.051 14.031-1.727 2.11-3.652 4.353-5.894 6.083 1.825 2.228 3.943 4.181 6.374 5.765 6.426-6.693 14.609-14.737 26.155-19.249 0 0 3.917-9.57 1.815-18.166-0.808-3.308-3.6049-5.731-7.4479-7.091z" clip-rule="evenodd" fill="#113255" fill-rule="evenodd"/>
<path d="m136.48 166.72c10.276 12.913 25.177 34.161 17.785 41.118-7.391 6.956-16.057 19.733-31.617 10.138s-20.307-24.295-23.178-36.854c-2.87-12.558 3.7655-26.625 10.536-31.717 6.773-5.093 7.848-8.161 7.848-8.161 6.888 3.359 8.349 12.563 18.625 25.476z" clip-rule="evenodd" fill="#143B63" fill-rule="evenodd"/>
<path d="m143.6 210.33c-1.603-4.858-3.77-9.772-7.682-13.21-3.293-2.893-7.258-4.848-10.999-7.073-14.367-8.55-20.272-23.899-16.289-39.479-6.254 5.839-11.835 18.85-9.1604 30.554 2.8704 12.559 7.6174 27.259 23.177 36.854 9.819 6.054 16.892 3.199 22.634-1.481-0.473-2.076-1.012-4.136-1.681-6.165z" clip-rule="evenodd" fill="#113255" fill-rule="evenodd"/>
<path d="m104.64 232.28c0.453 10.468 2.988 22.063 0.133 31.5-4.09 13.516 12.53 15.367 16.041 8.707 2.718-5.155 6.5-18.057 11.43-27.978-11.114-0.052-21.717-2.66-27.604-12.229z" clip-rule="evenodd" fill="#92CDFA" fill-rule="evenodd"/>
<path d="m104.64 232.28c0.109 2.527 0.341 5.121 0.588 7.733 1.73 2.877 3.563 5.704 5.815 8.184 1.033 1.137 2.147 2.238 3.412 3.117 0.816 0.566 2.347 0.945 3.018 1.577 1.109 1.046 0.862 3.122 0.887 4.568 0.089 5.241-0.873 8.034-2.089 13.097-0.254 1.054-1.861 4.602-2.068 5.655 4.382 0.233 5.604-1.814 6.611-3.724 2.718-5.155 6.5-18.057 11.43-27.978-11.114-0.052-21.717-2.66-27.604-12.229z" clip-rule="evenodd" fill="#5EB2FC" fill-rule="evenodd"/>
<path d="m144.04 193.91c-10.244-7.617-12.921 4.337-30.34 15.38-8.213 5.207-9.464 13.645-9.059 22.982 5.886 9.57 16.49 12.177 27.603 12.229 1.44-2.899 2.693-5.304 3.593-6.798 3.977-6.605 8.634-18.957 18.422-29.87 0 0 0.026-6.305-10.219-13.923z" clip-rule="evenodd" fill="#143B63" fill-rule="evenodd"/>
<path d="m147.79 209.33c-3.844 0.411-8.646-2.307-10.477-6.067-0.323 0.96-0.634 1.921-0.97 2.879-4.427 12.603-9.702 24.891-14.341 37.409 3.276 0.665 6.735 0.938 10.246 0.955 1.439-2.899 2.693-5.304 3.593-6.798 3.977-6.606 8.634-18.957 18.422-29.87 0 0 0-0.107-0.022-0.305-2.02 1.071-4.56 1.595-6.451 1.797z" clip-rule="evenodd" fill="#113255" fill-rule="evenodd"/>
<path d="m58.211 125.84c-18.121 11.249-17.647 35.041-10.155 41.518 7.492 6.479 20.305 20.218 25.278 24.599 2.668 11.7 19.1 26.464 28.297 22.847 9.197-3.616 16.274-9.664 11.153-24.541s-9.43-19.812-13.392-26.053c-3.962-6.241-33.762-35.152-41.181-38.37z" clip-rule="evenodd" fill="#143B63" fill-rule="evenodd"/>
<path d="m55.726 165.9c-3.75-10.547-5.1-21.834 2.467-31.076 1.995-2.438 4.21-3.866 6.549-4.528-2.788-2.22-5.085-3.826-6.531-4.452-18.121 11.249-17.647 35.039-10.155 41.518 3.72 3.217 8.751 8.223 13.483 12.985-2.355-4.664-4.124-9.695-5.813-14.447z" clip-rule="evenodd" fill="#113255" fill-rule="evenodd"/>
<path d="m58.628 123.17c-1.132 0.909-3.478 3.111-2.76 5.279 0.718 2.169 23.427 22.318 44.014 20.5 12.736-1.237 19.023-7.115 19.023-7.115l-0.022-9.285-47.124-4.409-13.131-4.97z" clip-rule="evenodd" fill="#FCD250" fill-rule="evenodd"/>
<path d="m57.712 129.29c0.267 0 0.493-0.207 0.514-0.478 0.049-0.69 0.744-1.987 1.007-2.429 0.146-0.244 0.066-0.561-0.18-0.707-0.243-0.145-0.562-0.065-0.706 0.179-0.111 0.184-1.072 1.826-1.151 2.881-0.021 0.284 0.193 0.532 0.477 0.553 0.013 0 0.025 1e-3 0.039 1e-3z" clip-rule="evenodd" fill="#EB7D16" fill-rule="evenodd"/>
<path d="m60.892 132.16c0.023 0 0.045-1e-3 0.068-4e-3 0.282-0.037 0.482-0.296 0.445-0.578-0.109-0.833 0.541-2.754 0.8-3.424 0.102-0.265-0.029-0.564-0.294-0.667-0.266-0.102-0.565 0.029-0.668 0.295-0.105 0.271-1.022 2.687-0.862 3.928 0.034 0.261 0.256 0.45 0.511 0.45z" clip-rule="evenodd" fill="#EB7D16" fill-rule="evenodd"/>
<path d="m65.35 135.56c0.024 0 0.048-1e-3 0.071-4e-3 0.283-0.039 0.48-0.299 0.441-0.581-0.255-1.858 1.355-4.839 1.371-4.869 0.137-0.25 0.044-0.564-0.205-0.699-0.25-0.138-0.564-0.046-0.699 0.205-0.075 0.134-1.791 3.308-1.489 5.503 0.035 0.258 0.257 0.445 0.51 0.445z" clip-rule="evenodd" fill="#EB7D16" fill-rule="evenodd"/>
<path d="m70.776 139.2c0.281 0 0.512-0.227 0.516-0.508 0.025-1.853 1.138-6.11 1.149-6.153 0.072-0.276-0.092-0.557-0.368-0.63-0.277-0.073-0.558 0.093-0.629 0.368-0.048 0.179-1.157 4.423-1.184 6.4-4e-3 0.285 0.224 0.519 0.509 0.523h7e-3z" clip-rule="evenodd" fill="#EB7D16" fill-rule="evenodd"/>
<path d="m76.688 142.38c0.265 0 0.491-0.204 0.513-0.474 0.162-1.997 1.088-5.656 1.097-5.693 0.07-0.276-0.097-0.557-0.373-0.627-0.278-0.071-0.555 0.097-0.627 0.373-0.039 0.153-0.957 3.78-1.125 5.864-0.023 0.284 0.188 0.533 0.472 0.556 0.015 1e-3 0.028 1e-3 0.043 1e-3z" clip-rule="evenodd" fill="#EB7D16" fill-rule="evenodd"/>
<path d="m81.976 144.61c0.228 0 0.436-0.151 0.498-0.38 0.35-1.284 1.778-5.697 1.793-5.742 0.088-0.271-0.062-0.562-0.332-0.649-0.272-0.087-0.562 0.06-0.649 0.332-0.06 0.182-1.451 4.481-1.807 5.788-0.075 0.275 0.087 0.557 0.361 0.632 0.045 0.013 0.091 0.019 0.136 0.019z" clip-rule="evenodd" fill="#EB7D16" fill-rule="evenodd"/>
<path d="m88.971 146.67c0.222 0 0.427-0.144 0.493-0.367 0.307-1.016 1.493-4.719 1.493-4.719l-0.981-0.316s-1.192 3.718-1.499 4.737c-0.081 0.273 0.073 0.561 0.346 0.643 0.048 0.015 0.099 0.022 0.148 0.022z" clip-rule="evenodd" fill="#EB7D16" fill-rule="evenodd"/>
<path d="m96.219 148.02c0.011 0 0.021 0 0.031-1e-3 0.284-0.016 0.501-0.261 0.485-0.544-0.048-0.806 0.55-2.975 0.785-3.742 0.083-0.273-0.071-0.561-0.342-0.644-0.273-0.086-0.562 0.07-0.645 0.342-0.091 0.301-0.895 2.969-0.828 4.104 0.016 0.274 0.243 0.485 0.514 0.485z" clip-rule="evenodd" fill="#EB7D16" fill-rule="evenodd"/>
<path d="m104.99 147.3c0.207 0 0.402-0.125 0.481-0.33 0.398-1.028 0.263-3.75 0.247-4.057-0.016-0.284-0.271-0.505-0.543-0.487-0.285 0.016-0.502 0.259-0.488 0.543 0.059 1.075 0.062 3.009-0.178 3.628-0.103 0.266 0.03 0.565 0.295 0.668 0.061 0.023 0.124 0.035 0.186 0.035z" clip-rule="evenodd" fill="#EB7D16" fill-rule="evenodd"/>
<path d="m110.05 145.44c0.23 0 0.441-0.156 0.5-0.39 0.359-1.427 0.332-4.772 0.331-4.914-3e-3 -0.285-0.197-0.533-0.52-0.51-0.286 2e-3 -0.514 0.235-0.511 0.52 0 0.033 0.027 3.354-0.3 4.652-0.069 0.276 0.098 0.556 0.374 0.626 0.042 0.011 0.084 0.016 0.126 0.016z" clip-rule="evenodd" fill="#EB7D16" fill-rule="evenodd"/>
<path d="m114.36 143.26c0.255 0 0.476-0.188 0.511-0.447 0.187-1.398 0.267-5.165 0.271-5.324 6e-3 -0.286-0.22-0.521-0.505-0.527-0.298-1e-3 -0.52 0.22-0.526 0.505-1e-3 0.038-0.083 3.869-0.263 5.209-0.038 0.282 0.16 0.542 0.443 0.58 0.023 3e-3 0.047 4e-3 0.069 4e-3z" clip-rule="evenodd" fill="#EB7D16" fill-rule="evenodd"/>
<path d="m117.2 141.84c0.281 0 0.512-0.225 0.517-0.507 0.016-1.018-0.021-4.94-0.023-5.106-2e-3 -0.285-0.193-0.509-0.52-0.512-0.286 3e-3 -0.514 0.236-0.511 0.521 1e-3 0.041 0.038 4.076 0.022 5.08-5e-3 0.285 0.222 0.52 0.507 0.524h8e-3z" clip-rule="evenodd" fill="#EB7D16" fill-rule="evenodd"/>
<path d="m105.01 223.2c-1.055 10.197 15.33 16.931 23.082 15.72 7.751-1.211 10.228-5.755 10.228-5.755 0.37-3.26 2.568-5.027 2.568-5.027s7.928 16.934-10.668 20.518c-18.595 3.585-36.115-17.703-25.21-25.456z" clip-rule="evenodd" fill="#92CDFA" fill-rule="evenodd"/>
<path d="m64.361 201.91c-2.591 7.072 5.713 30.675 15.847 27.37 1.669-2.878 3.914-3.583 3.914-3.583-0.454 8.75-6.361 17.403-15.388 9.359-9.027-8.043-10.306-20.2-9.663-24.045 0.934-5.58 3.903-10.431 5.29-9.101z" clip-rule="evenodd" fill="#92CDFA" fill-rule="evenodd"/>
<path d="m123.25 89.62c5.78 8.69 16.186 24.684 24.376 29.018 8.19 4.333 34.215 3.738 38.263 1.508 4.047-2.231 4.929-9.258 2.037-10.811-2.893-1.553-25.979-10.626-29.286-9.115-3.309 1.511 1.76-2.186-15.539-29.291-4.978-7.558-17.443-4.336-19.317 2.463-1.874 6.8-2.519 9.978-0.534 16.228z" clip-rule="evenodd" fill="#143B63" fill-rule="evenodd"/>
<path d="m148.31 116.81c-2.795-3.998-4.442-8.678-5.476-13.414-1.231-5.6451-1.526-11.287-1.05-17.035 0.482-5.84 1.162-11.687-0.268-17.279-5.639-5.077-16.037-1.853-17.735 4.31-1.874 6.799-2.52 9.977-0.534 16.227 5.78 8.69 16.185 24.684 24.376 29.018 0.867 0.459 1.945 0.859 3.166 1.212-0.959-1.021-1.804-2.074-2.479-3.039z" clip-rule="evenodd" fill="#113255" fill-rule="evenodd"/>
<path d="m187.92 109.34c-2.113-1.134-14.995-6.278-23.079-8.381-5.156 5.203-7.461 12.996-6.611 20.283 10.789 1.252 24.775 0.495 27.653-1.091 4.047-2.23 4.93-9.259 2.037-10.811z" clip-rule="evenodd" fill="#113255" fill-rule="evenodd"/>
<mask id="c" x="161" y="99" width="61" height="28" mask-type="alpha" maskUnits="userSpaceOnUse">
<path d="m161.4 99.767h60.25v27.141h-60.25v-27.141z" clip-rule="evenodd" fill="#fff" fill-rule="evenodd"/>
</mask>
<g mask="url(#c)">
<path d="m163.3 124.18c-2.277-1.182-3.883-18.121 3.54-23.701 8.303 2.722 19.325 8.039 19.325 8.039s0.377-1.33 2.077-1.037c5.047-2.506 11.514-5.435 14.368-6.639 2.853-1.204 10.903-1.552 12.737-0.256 1.833 1.296 8.758 8.286 5.386 8.265-3.371-0.022-4.241-0.965-5.596-2.555-0.632 1.155-5.106 0.9-5.106 0.9 5.499 2.602 6.8 5.285 7.153 7.448 0.352 2.164-5.689 0.984-6.886-1.41-2.196-1.906-3.122-1.922-3.122-1.922-0.853 1.321-5.353 0.719-5.353 0.719-1.453 1.223-4.559 2.207-2.281 5.79 1.252 1.235 2.876 3.201 5.622 2.274 2.747-0.929 3.348 0.905 3.817 1.749 0.468 0.844-4.942 2.137-8.324 4.287-3.253 2.069-12.576-0.255-15.208-4.146-4.697-0.612-15.201 1.44-22.149 2.195z" clip-rule="evenodd" fill="#92CDFA" fill-rule="evenodd"/>
</g>
<path d="m180.28 118.69c-5.762-2.229-12.608-1.271-18.779-0.656 0.255 3.25 0.986 5.726 1.806 6.152 6.349-0.69 17.005-2.361 22.15-2.195-0.864-1.356-3.367-2.6-5.177-3.301z" clip-rule="evenodd" fill="#5EB2FC" fill-rule="evenodd"/>
<path d="m202.44 107.84c-1.547 1.654-4.302 5.275-3.693 7.852-0.103-1.925 1.967-2.725 3.079-3.661 0 0 4.5 0.602 5.352-0.719 0 0 0.926 0.017 3.122 1.922 1.198 2.395 7.239 3.574 6.886 1.411-0.352-2.164-1.653-4.847-7.152-7.449 0 0 4.473 0.255 5.105-0.899 1.356 1.589 2.225 2.533 5.596 2.554 2.106 0.013 0.195-2.71-1.984-5.072-5.66-1.305-12.476-0.041-16.311 4.061z" clip-rule="evenodd" fill="#5EB2FC" fill-rule="evenodd"/>
<path d="m133.03 83.775c-0.188 13.921-3.295 17.579-5.159 20.979s-4.482 19.085-5.989 20.675c-1.509 1.591 3.115 6.448-2.993 9.82-6.107 3.373-11.806 8.337-18.578 9.379-9.7407 1.498-15.598-6.882-34.033-12.35-12.158-3.606-12.92-11.097-7.818-16.23 5.102-5.132-0.435-36.653 5.156-43.042 5.592-6.389 21.06-18.001 29.475-17.212 8.4137 0.79 35.314 9.525 37.775 15.892 2.462 6.368 2.229 7.286 2.164 12.089z" clip-rule="evenodd" fill="#143B63" fill-rule="evenodd"/>
<path d="m130.87 71.686c-2.461-6.367-29.361-15.103-37.775-15.892-8.415-0.789-23.883 10.823-29.475 17.212-4.237 4.842-2.084 24.113-3.013 35.399 0.206 0.091 0.405 0.19 0.624 0.27 3.008 1.09 6.365 1.139 9.417 0.222 6.507-1.955 7.848-7.154 8.111-13.269 0.0371-0.863 1.3261-0.957 1.629-0.218 1.215 2.963 2.6031 5.9471 4.1971 8.7271 2.1749 3.793 4.7629 4.908 9.0109 5.403 8.1559 0.951 16.38-0.83 24.516-1.557 1.019-1.104 1.912-2.293 2.77-3.508 3.543-6.3651 7.589-12.552 11.462-18.606 0.222-0.348 0.446-0.697 0.67-1.046 7e-3 -0.344 0.016-0.691 0.02-1.048 0.065-4.803 0.298-5.721-2.164-12.089z" clip-rule="evenodd" fill="#113255" fill-rule="evenodd"/>
<path d="m76.633 81.75c2.309 4.662 4.13 21.595 16.347 23.264 12.217 1.669 28.204 0.726 32.341-2.119 4.138-2.846 9.274-22.066 10.967-25.253 1.692-3.187 4.406-12.137-9.448-17.537-13.854-5.399-21.255-8.301-52.38-0.157-6.133 2.097 2.173 21.802 2.173 21.802z" clip-rule="evenodd" fill="#0161CD" fill-rule="evenodd"/>
<path d="m113.28 97.629c0.194 0 0.381-0.107 0.473-0.293 2.173-4.361-2.459-17.19-2.658-17.734-0.1-0.274-0.403-0.415-0.676-0.315-0.274 0.099-0.415 0.403-0.316 0.676 0.048 0.129 4.678 12.944 2.705 16.902-0.13 0.261-0.024 0.578 0.238 0.708 0.075 0.038 0.155 0.056 0.234 0.056z" clip-rule="evenodd" fill="#0353A7" fill-rule="evenodd"/>
<path d="m83.432 57.842c-0.012-0.025-0.024-0.049-0.036-0.073-2.75 0.616-5.709 1.335-8.936 2.179-6.132 2.097 2.173 21.802 2.173 21.802 0.744 1.504 1.441 4.287 2.449 7.421 6.633-5.828 7.767-18.479 6.003-26.229-0.397-1.747-0.957-3.453-1.653-5.1z" clip-rule="evenodd" fill="#0353A7" fill-rule="evenodd"/>
<path d="m89.726 62.47c4.412 4.276 10.671 6.758 16.394 8.717 10.373 3.551 21.598 4.936 31.563 1.382 0.161-3.952-1.845-8.956-10.844-12.464-11.948-4.657-19.11-7.448-40.816-2.906 0.933 1.906 2.084 3.701 3.703 5.271z" clip-rule="evenodd" fill="#0353A7" fill-rule="evenodd"/>
<path d="m44.041 122.46c10.582-2.94 33.008-27.462 31.846-34.661-1.162-7.197 4.565-22.886-3.736-22.479-8.3 0.408-12.609 2.962-15.965 8.812-3.357 5.85-18.756 21.275-24.129 27.19-5.374 5.914-13.094 23.451 11.984 21.138z" clip-rule="evenodd" fill="#143B63" fill-rule="evenodd"/>
<path d="m60.018 75.311c4.874-1.367 8.378 0.383 11.617 4.009 1.427 1.597 2.792 3.25 4.117 4.94 0.325-7.82 3.515-19.294-3.601-18.945-8.301 0.408-12.61 2.962-15.966 8.812-0.653 1.138-1.765 2.64-3.166 4.362 2.223-1.323 4.517-2.482 6.999-3.178z" clip-rule="evenodd" fill="#113255" fill-rule="evenodd"/>
<path d="m131.02 91.235c10.549-11.909 19.77-29.952 9.025-31.734-10.744-1.782-12.768 2.491-12.768 2.491 3.382 2.125 2.468 1.187 6.578 3.109 0.5 1.595 1.157 17.167-2.835 26.134z" clip-rule="evenodd" fill="#FCD250" fill-rule="evenodd"/>
<path d="m78.539 61.648c3.563 8.074 16.956 19.273 29.964 19.338 13.007 0.064 26.515-10.025 25.774-19.542-0.739-9.515-22.583-16.365-22.583-16.365s-21.925-0.638-28.316 4.985c-2.736 2.407-3.568 4.822-5.08 5.866-2.599 1.794-0.658 4.093 0.241 5.718z" clip-rule="evenodd" fill="#C8E7FA" fill-rule="evenodd"/>
<path d="m28.416 148.25c3.142-9.654 14.55-25.075 19.918-30.893s-9.539-22.471-17.803-13.976c-4.919 5.057-14.8 19.587-11.986 42.762s9.871 2.107 9.871 2.107z" clip-rule="evenodd" fill="#143B63" fill-rule="evenodd"/>
<path d="m39.781 129.87c-0.363-2.541-15.819-9.654-23.54-4.492-0.174 8.736 1.2 20.895 1.2 20.895s-1.38-0.083-1.665 1.618c-4.032 3.935-8.934 9.07-11.014 11.366-2.079 2.295-5.068 9.778-4.452 11.937 0.617 2.158 4.927 11.004 6.021 7.815 1.095-3.19 0.027-5.616-1.025-7.421 1.592-1.368 2.05-4.569 2.05-4.569 0.639 6.05 3.691 9.507 5.616 10.556 1.925 1.047 2.809-5.044 0.945-6.966-1.073-2.703-0.782-3.582-0.782-3.582 1.717-2.358 1.756-4.715 1.756-4.715 1.635-0.967 5.431-0.848 6.889 1.205 0.752 1.591 0.365 3.275-1.419 5.561-1.783 2.286-0.251 3.459 0.391 4.18 0.641 0.721 5.376-5.005 8.523-7.485 3.028-2.387 2.638-8.17-0.165-11.941 0.976-4.636 7.661-17.654 10.671-23.962z" clip-rule="evenodd" fill="#92CDFA" fill-rule="evenodd"/>
<path d="m21.78 163.52c0.062 0.13 0.104 0.261 0.149 0.393-0.114-0.499-0.295-0.992-0.571-1.487-1.481-2.663-3.9-3.117-6.407-2.557-3.413 1.465-4.336 5.331-3.39 8.749 0.502 1.811 1.591 4.549 3.381 5.662 0.038-1.405-0.265-2.884-1.025-3.668-1.073-2.703-0.783-3.582-0.783-3.582 1.718-2.358 1.757-4.715 1.757-4.715 1.635-0.967 5.431-0.848 6.889 1.205z" clip-rule="evenodd" fill="#5EB2FC" fill-rule="evenodd"/>
<path d="m7.3564 167.02c0.027 0.258 0.064 0.504 0.101 0.753-0.125-1.18-0.251-2.731-0.112-4.191-1.974 1.585-3.138 3.476-3.334 6.341-0.159 2.343 0.508 6.286 2.587 8.121 0.601-2.717-0.348-4.837-1.292-6.455 1.592-1.368 2.05-4.569 2.05-4.569z" clip-rule="evenodd" fill="#5EB2FC" fill-rule="evenodd"/>
<path d="m34.487 139.73c-1.223 2.223-2.577 4.546-4.301 6.417-1.343 1.458-5.296 3.544-5.184 5.584 0.089 1.632 4.673 3.586 5.742 5.522 0.087 0.158 0.164 0.323 0.239 0.489-0.376-1.387-1.009-2.741-1.873-3.904 0.976-4.636 7.661-17.655 10.671-23.962-0.078-0.544-0.85-1.296-2.083-2.092 0.291 4.166-1.152 8.202-3.211 11.946z" clip-rule="evenodd" fill="#5EB2FC" fill-rule="evenodd"/>
<path d="m73.017 52.936c-9.635-2.596-18.01 2.158-19.5 9.065-1.357 6.299-1.206 7.411 1.372 14.081 0.286-0.484 0.671-0.841 0.905-1.268 0.249-0.453 0.608-1.019 0.833-1.427 2.1-6.249 7.62-8.077 11.193-2.626 4.344 6.629 6.761 17.479 6.88 21.826 7.571-8.904 7.951-37.055-1.683-39.651z" clip-rule="evenodd" fill="#FCD250" fill-rule="evenodd"/>
<path d="m131.28 35.783c-0.736 1.4 1.915 6.317 3.856 7.934 3.263-0.995 14.965-8.211 14.965-8.211l-0.841-2.155-17.98 2.432z" clip-rule="evenodd" fill="#0161CD" fill-rule="evenodd"/>
<path d="m152.77 37.024c0.933-0.656 1.551-1.761 1.575-2.959 0.08-4.027-6.732-5.985-7.767-1.659-0.576 2.401 1.741 5.144 4.149 5.232 0.758 0.028 1.462-0.206 2.043-0.614z" clip-rule="evenodd" fill="#5EB2FC" fill-rule="evenodd"/>
<path d="m152.82 31.697c-0.408-0.729-1.24-1.211-2.096-1.107-0.929 0.112-1.62 0.754-1.813 1.617-0.158 0.486-0.112 1.026 0.18 1.471 0.013 0.027 0.024 0.055 0.038 0.081 8e-3 0.02 8e-3 0.042 0.018 0.061 0.252 0.502 0.565 0.879 1.128 1.042 0.21 0.06 0.423 0.086 0.636 0.088 0.875 0.134 1.799-0.232 2.261-1.004 0.457-0.766 0.217-1.655-0.352-2.249z" clip-rule="evenodd" fill="#92CDFA" fill-rule="evenodd"/>
<path d="m115.22 76.789c-20.86 2.645-36.215-17.438-37.643-22.581-1.427-5.143-4.121-23.34 4.987-32.099 9.227-8.875 21.27-11.921 34.102-8.031 16.364 4.96 23.34 18.552 22.533 31.522-0.806 12.97-7.266 29.07-23.979 31.189z" clip-rule="evenodd" fill="#1273EB" fill-rule="evenodd"/>
<path d="m85.686 55.933c-2.651-4.708-5.369-8.907-9.509-10.976 0.249 4.04 0.904 7.449 1.404 9.251 0.992 3.574 8.71 14.352 20.324 19.716-5.154-5.151-8.658-11.667-12.219-17.991z" clip-rule="evenodd" fill="#0161CD" fill-rule="evenodd"/>
<path d="m132.88 28.501c1.174 0.818 0.613 5.061 0.323 6.21-0.502 1.991-1.626 3.716-3.118 5.108-3.851 3.593-9.859 4.011-14.778 2.572-6.339-1.854-15.764-10.093-14.26-17.524-15.259 9.847-15.703 26.174-11.146 37.536 5.074 12.656 28.038 18.448 40.715 4.277 12.679-14.171 7.6-34.462 2.264-38.179z" clip-rule="evenodd" fill="#C8E7FA" fill-rule="evenodd"/>
<path d="m132.86 55.346c-0.416-0.395-1.214-0.39-1.557 0.115-0.29-0.09-0.609-0.081-0.934 0.091-7.872 4.141-18.062 5.923-26.131 1.193-8.7357-5.12-8.0967-17.195-5.3597-25.56 0.261-0.797-0.729-1.49-1.306-0.778-0.253 0.312-0.486 0.642-0.711 0.98-10.642 9.94-8.954 30.481 3.014 37.849 5.3667 3.303 14.227 3.677 21.456 1.173 4.022-2.24 7.308-6.833 10.148-10.336 0.422-1.579 0.881-3.158 1.381-4.727z" clip-rule="evenodd" fill="#92CDFA" fill-rule="evenodd"/>
<path d="m135.5 37.969c-1.017 1.68-2.58 3.768-4.345 4.884 0.711 4.799 1.726 10.676-0.255 15.08-1.414 3.148-3.966 6.264-6.584 8.974-3.08 2.353-6.597 4.111-9.897 4.856-0.25 0.057-0.313 0.48-8e-3 0.495 7.007 0.337 14.458-6.111 18.11-11.698 3.634-5.558 5.386-16.107 3.117-22.382-0.033-0.087-0.081-0.154-0.138-0.209z" clip-rule="evenodd" fill="#F9FAFB" fill-rule="evenodd"/>
<path d="m92.589 21.185c-0.104 2.225-2.027 4.202-3.425 5.768-1.397 1.566-3.483 3.729-5.752 3.792-1.917 0.053-2.909-1.655-2.662-3.402 0.112-0.794 0.385-1.604 0.77-2.389 1.062-3.259 4.588-6.352 7.657-6.884 1.962-0.341 3.506 1.133 3.412 3.115z" clip-rule="evenodd" fill="#5EB2FC" fill-rule="evenodd"/>
<path d="m83.025 27.095c1.55 0.316 5.53-3.604 6.54-5.92-1.867-2.855-12.066-12.075-12.066-12.075l-1.834 1.41 7.36 16.585z" clip-rule="evenodd" fill="#0161CD" fill-rule="evenodd"/>
<path d="m78.21 6.1117c-0.89-0.713-2.124-0.997-3.281-0.685-3.89 1.048-3.865 8.136 0.578 7.922 2.466-0.12 4.453-3.11 3.864-5.446-0.185-0.737-0.606-1.347-1.161-1.791z" clip-rule="evenodd" fill="#5EB2FC" fill-rule="evenodd"/>
<path d="m76.305 7.9095c-0.226-0.473-0.617-0.869-1.145-1.077-1.28-0.505-2.573 0.415-2.718 1.73-0.048 0.437-0.028 1.056 0.158 1.464 0.126 0.277 0.32 0.516 0.556 0.697 0.868 0.797 2.128 0.37 2.827-0.458 0.316-0.33099 0.533-0.75699 0.58-1.222 0.043-0.418-0.059-0.803-0.258-1.134z" clip-rule="evenodd" fill="#92CDFA" fill-rule="evenodd"/>
<path d="m122.41 16.557c-1.746-0.912-4.549-2.135-6.692-0.12-4.108 3.861 1.607 10.957 6.13 10.942 6.662-0.024 8.687-6.576 0.562-10.822z" clip-rule="evenodd" fill="#5EB2FC" fill-rule="evenodd"/>
<path d="m118.02 16.7c0.383-0.159 8.481-12.688 9.107-12.934s2.063 0.823 2.063 0.823-2.575 15.327-3.334 17.203c-0.76 1.875-4.517 2.257-6.628 0.908-2.111-1.351-1.958-5.009-1.208-6z" clip-rule="evenodd" fill="#0161CD" fill-rule="evenodd"/>
<mask id="b" x="124" y="0" width="8" height="10" mask-type="alpha" maskUnits="userSpaceOnUse">
<path d="m124.32 0.0010071h7.675v9.0189h-7.675v-9.0189z" clip-rule="evenodd" fill="#fff" fill-rule="evenodd"/>
</mask>
<g mask="url(#b)">
<path d="m131.29 1.9838c-0.169-0.287-0.369-0.555-0.599-0.795-2.006-2.104-5.379-1.295-6.212 1.488-0.935 3.125 2.469 8.254 5.877 5.611 1.851-1.436 2.098-4.335 0.934-6.304z" clip-rule="evenodd" fill="#5EB2FC" fill-rule="evenodd"/>
</g>
<path d="m128.84 5.1117c-0.529 0.177-1.112 0.16-1.629-0.062-0.499-0.057-0.974-0.253-1.302-0.668-0.387-0.489-0.545-1.095-0.43-1.707 0.183-0.985 1.028-1.663 1.968-1.85 1.209-0.402 2.545 0.21 2.984 1.432 0.463 1.288-0.346 2.633-1.591 2.855z" clip-rule="evenodd" fill="#92CDFA" fill-rule="evenodd"/>
<path d="m97.971 144.78c2.5092 0 4.6262-0.86 5.8122-2.441 1.584-2.112 1.389-5.268-0.55-8.888-1.469-2.74-0.534-3.56 1.329-5.195 3.017-2.649 7.578-6.651 4.451-22.032-0.059-0.285-0.338-0.47-0.622-0.413-0.286 0.059-0.471 0.338-0.413 0.623 3.005 14.781-1.278 18.541-4.113 21.029-1.839 1.614-3.428 3.008-1.564 6.487 1.735 3.237 1.962 5.991 0.638 7.755-1.323 1.763-4.1212 2.441-7.3022 1.764-0.289-0.057-0.565 0.123-0.626 0.408-0.061 0.284 0.122 0.565 0.406 0.626 0.881 0.186 1.739 0.277 2.554 0.277z" clip-rule="evenodd" fill="#0353A7" fill-rule="evenodd"/>
<path d="m92.37 156.13c0.139 0 0.276-0.055 0.38-0.162 0.202-0.21 0.195-0.544-0.015-0.747-8.2651-7.955-18.042-9.423-24.797-9.244-0.291 7e-3 -0.522 0.25-0.514 0.541s0.26 0.544 0.541 0.514c6.56-0.159 16.035 1.249 24.039 8.951 0.102 0.097 0.234 0.147 0.366 0.147z" clip-rule="evenodd" fill="#0353A7" fill-rule="evenodd"/>
<path d="m96.705 161.89c0.131 0 0.264-0.049 0.365-0.147 0.211-0.204 0.217-0.538 0.015-0.748-4.43-4.597-13.079-9.904-20.385-10.68-0.274-0.028-0.55 0.179-0.58 0.47-0.03 0.29 0.18 0.549 0.47 0.581 7.056 0.749 15.434 5.898 19.734 10.363 0.104 0.106 0.242 0.161 0.381 0.161z" clip-rule="evenodd" fill="#0353A7" fill-rule="evenodd"/>
<path d="m74.169 82.342c0.025 0 0.052-2e-3 0.078-6e-3 1.056-0.172 4.211-0.566 4.243-0.57 0.264-0.032 0.451-0.273 0.418-0.537s-0.282-0.446-0.537-0.418c-0.131 0.016-3.206 0.4-4.279 0.575-0.263 0.042-0.44 0.289-0.398 0.552 0.039 0.237 0.244 0.404 0.475 0.404z" clip-rule="evenodd" fill="#EB7D16" fill-rule="evenodd"/>
<path d="m73.071 78.811c0.164 0 0.326-0.077 0.43-0.221 2.012-2.817 4.55-1.202 4.658-1.132 0.243 0.159 0.57 0.093 0.73-0.15 0.161-0.243 0.095-0.568-0.147-0.73-0.034-0.022-3.484-2.259-6.101 1.398-0.169 0.237-0.114 0.567 0.123 0.737 0.093 0.066 0.201 0.098 0.307 0.098z" clip-rule="evenodd" fill="#EB7D16" fill-rule="evenodd"/>
<path d="m71.292 74.484c0.198 0 0.39-0.114 0.479-0.307 0.583-1.258 3.475-3.355 5.528-3.366h0.014c0.762 0 1.273 0.295 1.561 0.899 0.125 0.264 0.442 0.374 0.702 0.251 0.264-0.125 0.376-0.441 0.25-0.704-0.467-0.983-1.335-1.502-2.513-1.502h-0.02c-2.396 0.013-5.682 2.252-6.48 3.979-0.123 0.265-7e-3 0.579 0.257 0.701 0.072 0.033 0.147 0.049 0.222 0.049z" clip-rule="evenodd" fill="#EB7D16" fill-rule="evenodd"/>
<path d="m69.226 70.146c0.274 0 0.506-0.213 0.526-0.492 0.23-3.338 2.879-6.032 5.203-6.614 0.741-0.187 2.108-0.307 2.908 0.971 0.153 0.246 0.478 0.321 0.727 0.167 0.247-0.155 0.323-0.481 0.166-0.728-0.842-1.346-2.324-1.868-4.058-1.434-2.741 0.686-5.734 3.704-6 7.566-0.02 0.29 0.199 0.542 0.491 0.563 0.012 1e-3 0.024 1e-3 0.037 1e-3z" clip-rule="evenodd" fill="#EB7D16" fill-rule="evenodd"/>
<path d="m66.442 67.336c0.055 0 0.11-9e-3 0.166-0.027 0.276-0.092 0.427-0.39 0.335-0.667-1.412-4.271 0.418-8.255 2.856-9.834 1.635-1.058 3.348-0.956 4.701 0.279 0.214 0.197 0.548 0.182 0.745-0.034 0.197-0.215 0.181-0.549-0.033-0.745-1.708-1.562-3.946-1.707-5.986-0.387-2.771 1.795-4.864 6.278-3.285 11.052 0.073 0.222 0.279 0.363 0.501 0.363z" clip-rule="evenodd" fill="#EB7D16" fill-rule="evenodd"/>
<path d="m63.365 65.109c0.113 0 0.227-0.036 0.322-0.11 0.232-0.179 0.274-0.511 0.095-0.741-1.787-2.309-2.71-5.037-2.407-7.119 0.154-1.068 0.612-1.881 1.358-2.418 0.237-0.17 0.291-0.5 0.121-0.737s-0.501-0.289-0.737-0.12c-0.974 0.701-1.592 1.781-1.786 3.123-0.343 2.356 0.66 5.39 2.616 7.917 0.105 0.135 0.26 0.205 0.418 0.205z" clip-rule="evenodd" fill="#EB7D16" fill-rule="evenodd"/>
<path d="m59.68 67.099c0.208 0 0.404-0.124 0.488-0.328 0.111-0.27-0.018-0.578-0.288-0.689-3.473-1.423-4.36-5.292-4.145-6.665 0.045-0.288-0.153-0.558-0.44-0.603-0.283-0.047-0.558 0.151-0.603 0.44-0.291 1.854 0.844 6.19 4.787 7.805 0.066 0.027 0.134 0.04 0.201 0.04z" clip-rule="evenodd" fill="#EB7D16" fill-rule="evenodd"/>
<path d="m57.263 70.677c0.209 0 0.398-0.144 0.448-0.355 0.057-0.247-0.095-0.495-0.343-0.552-0.015-4e-3 -1.705-0.434-3.197-2.406-0.153-0.204-0.442-0.242-0.644-0.088-0.202 0.152-0.242 0.441-0.089 0.643 1.706 2.252 3.638 2.726 3.721 2.745 0.035 9e-3 0.07 0.013 0.104 0.013z" clip-rule="evenodd" fill="#EB7D16" fill-rule="evenodd"/>
<path d="m75.68 86.695c0.735 0 1.452-0.381 1.867-0.707 0.228-0.18 0.267-0.51 0.089-0.739-0.179-0.23-0.512-0.27-0.741-0.092-0.011 9e-3 -1.085 0.814-1.705 0.319-0.231-0.181-0.561-0.143-0.742 0.087-0.181 0.229-0.142 0.561 0.086 0.741 0.359 0.283 0.754 0.391 1.146 0.391z" clip-rule="evenodd" fill="#EB7D16" fill-rule="evenodd"/>
<path d="m143.68 67.427c0.077 0 0.156-0.017 0.231-0.054 0.262-0.128 0.371-0.445 0.243-0.706-0.88-1.792-4.328-3.609-8.934-1.812-0.271 0.105-0.405 0.411-0.3 0.683 0.107 0.272 0.414 0.406 0.685 0.3 4.133-1.612 6.989 0.048 7.6 1.294 0.092 0.187 0.28 0.295 0.475 0.295z" clip-rule="evenodd" fill="#EB7D16" fill-rule="evenodd"/>
<path d="m141.96 62.056c0.232 0 0.445-0.154 0.509-0.389 0.076-0.281-0.089-0.571-0.37-0.648-0.118-0.032-2.884-0.775-5.25-0.456-0.289 0.038-0.492 0.305-0.453 0.593 0.04 0.289 0.302 0.494 0.593 0.453 2.162-0.291 4.805 0.42 4.831 0.428 0.047 0.013 0.094 0.019 0.14 0.019z" clip-rule="evenodd" fill="#EB7D16" fill-rule="evenodd"/>
<path d="m142.05 71.315c0.174 0 0.345-0.086 0.445-0.245 0.158-0.245 0.084-0.571-0.161-0.729-0.178-0.113-4.389-2.754-7.203-0.87-0.242 0.162-0.308 0.49-0.145 0.733 0.162 0.243 0.491 0.306 0.732 0.145 2.249-1.507 6.012 0.859 6.049 0.883 0.088 0.056 0.185 0.083 0.283 0.083z" clip-rule="evenodd" fill="#EB7D16" fill-rule="evenodd"/>
<path d="m139.84 75.909c0.159 0 0.318-0.072 0.422-0.21 0.176-0.233 0.129-0.564-0.104-0.739-0.124-0.093-3.046-2.27-5.079-1.347-0.265 0.121-0.382 0.434-0.261 0.7 0.121 0.265 0.431 0.382 0.699 0.262 1.218-0.555 3.303 0.698 4.006 1.228 0.094 0.071 0.206 0.106 0.317 0.106z" clip-rule="evenodd" fill="#EB7D16" fill-rule="evenodd"/>
<path d="m138.09 79.717c0.149 0 0.297-0.062 0.401-0.184 0.19-0.221 0.164-0.555-0.057-0.744-0.212-0.181-2.106-1.748-3.573-1.063-0.265 0.124-0.378 0.438-0.255 0.702 0.123 0.265 0.437 0.379 0.701 0.255 0.675-0.317 1.936 0.475 2.439 0.907 0.101 0.085 0.223 0.127 0.344 0.127z" clip-rule="evenodd" fill="#EB7D16" fill-rule="evenodd"/>
<path d="m135.65 83.064c0.265 0 0.493-0.199 0.524-0.468 0.034-0.289-0.173-0.551-0.463-0.584l-0.711-0.083c-0.291-0.031-0.551 0.175-0.585 0.464-0.034 0.29 0.173 0.551 0.464 0.585l0.71 0.082c0.021 3e-3 0.041 4e-3 0.061 4e-3z" clip-rule="evenodd" fill="#EB7D16" fill-rule="evenodd"/>
<path d="m185.45 122.52c0.129 0 0.258-0.047 0.36-0.142 0.213-0.198 0.226-0.532 0.027-0.746-0.149-0.159-3.675-3.919-6.466-3.655-0.29 0.025-0.505 0.281-0.479 0.571 0.025 0.291 0.271 0.508 0.572 0.48 1.889-0.172 4.686 2.342 5.6 3.324 0.104 0.111 0.245 0.168 0.386 0.168z" clip-rule="evenodd" fill="#5EB2FC" fill-rule="evenodd"/>
<path d="m84.901 204.79c0.229 0 0.44-0.149 0.507-0.381 0.081-0.28-0.08-0.573-0.361-0.654-3.793-1.101-7.294-5.51-9.341-8.577 2.228 1.89 5.336 4.218 7.361 4.439 0.279 0.029 0.55-0.178 0.582-0.468 0.031-0.291-0.179-0.551-0.468-0.583-2.509-0.272-7.666-4.851-9.442-6.592-0.187-0.182-0.476-0.201-0.685-0.047-0.208 0.156-0.272 0.439-0.152 0.669 0.222 0.422 5.482 10.326 11.852 12.173 0.048 0.014 0.098 0.021 0.147 0.021z" clip-rule="evenodd" fill="#0353A7" fill-rule="evenodd"/>
<path d="m66.995 247.93c0.931 0 1.924-0.111 2.977-0.336 0.285-0.061 0.466-0.342 0.406-0.627-0.063-0.286-0.346-0.466-0.626-0.406-3.135 0.667-5.66 0.261-7.5-1.214-3.285-2.635-3.367-7.861-3.367-7.914-3e-3 -0.29-0.239-0.524-0.529-0.524h-3e-3c-0.291 2e-3 -0.526 0.241-0.524 0.532 2e-3 0.234 0.081 5.771 3.757 8.725 1.462 1.175 3.273 1.764 5.409 1.764z" clip-rule="evenodd" fill="#5EB2FC" fill-rule="evenodd"/>
<path d="m60.218 246.24c0.128 0 0.255-0.046 0.356-0.139 0.216-0.198 0.231-0.531 0.034-0.747-0.035-0.036-3.373-3.711-3.792-6.655-0.041-0.289-0.306-0.491-0.598-0.448-0.288 0.041-0.488 0.307-0.447 0.596 0.464 3.27 3.912 7.061 4.057 7.222 0.106 0.113 0.247 0.171 0.39 0.171z" clip-rule="evenodd" fill="#5EB2FC" fill-rule="evenodd"/>
<path d="m51.129 238.93c0.165 0 0.327-0.078 0.428-0.226 0.154-0.225 1.424-2.381-1.54-8.295-0.907-1.809-1.176-3.125-0.825-4.024 0.478-1.225 2.171-1.864 4.316-2.675 0.586-0.221 1.204-0.455 1.843-0.718 0.268-0.109 0.398-0.417 0.287-0.688-0.11-0.27-0.419-0.4-0.689-0.287-0.629 0.258-1.238 0.488-1.814 0.706-2.391 0.902-4.277 1.617-4.927 3.277-0.473 1.21-0.197 2.761 0.865 4.882 2.679 5.344 1.616 7.221 1.604 7.239-0.149 0.245-0.077 0.57 0.162 0.723 0.091 0.059 0.191 0.086 0.29 0.086z" clip-rule="evenodd" fill="#5EB2FC" fill-rule="evenodd"/>
<path d="m116.29 281.68c0.331 0 0.655-0.036 0.969-0.114 1.55-0.384 2.575-1.671 3.048-3.825 0.062-0.286-0.118-0.568-0.403-0.629-0.287-0.065-0.566 0.117-0.629 0.402-0.38 1.729-1.143 2.748-2.27 3.027-2.397 0.589-5.914-2.019-7.645-4.066-0.188-0.222-0.521-0.25-0.744-0.063-0.222 0.189-0.251 0.522-0.062 0.745 1.589 1.878 4.907 4.523 7.736 4.523z" clip-rule="evenodd" fill="#5EB2FC" fill-rule="evenodd"/>
<path d="m119.48 201.92c0.048 0 0.097-7e-3 0.145-0.021 6.638-1.892 12.481-3.437 12.539-3.453 0.282-0.074 0.45-0.364 0.376-0.645-0.075-0.282-0.364-0.447-0.646-0.376-0.059 0.016-5.91 1.563-12.559 3.459-0.28 0.08-0.442 0.373-0.362 0.653 0.066 0.232 0.278 0.383 0.507 0.383z" clip-rule="evenodd" fill="#0353A7" fill-rule="evenodd"/>
<path d="m165.23 120.93c0.039 0 0.077-4e-3 0.116-0.013 0.285-0.064 0.464-0.346 0.4-0.631-1.287-5.737 0.042-13.409 2.901-16.753 0.189-0.222 0.164-0.555-0.058-0.744-0.222-0.192-0.554-0.163-0.744 0.058-3.046 3.561-4.479 11.654-3.13 17.67 0.056 0.246 0.274 0.413 0.515 0.413z" clip-rule="evenodd" fill="#5EB2FC" fill-rule="evenodd"/>
<path d="m183.72 113.63c0.226 0 0.434-0.145 0.504-0.37 0.371-1.181 0.872-2.377 1.49-3.554 0.136-0.258 0.036-0.577-0.222-0.713-0.259-0.134-0.577-0.036-0.712 0.222-0.648 1.233-1.173 2.487-1.563 3.729-0.088 0.278 0.067 0.574 0.346 0.662 0.052 0.016 0.105 0.024 0.157 0.024z" clip-rule="evenodd" fill="#5EB2FC" fill-rule="evenodd"/>
<path d="m22.817 149.81c0.192 0 0.377-0.106 0.471-0.289 0.132-0.26 0.029-0.577-0.232-0.71-2.217-1.129-5.91-0.648-6.068-0.627-0.288 0.038-0.49 0.304-0.452 0.593 0.038 0.288 0.305 0.499 0.593 0.453 0.035-4e-3 3.528-0.456 5.449 0.522 0.077 0.039 0.158 0.058 0.239 0.058z" clip-rule="evenodd" fill="#5EB2FC" fill-rule="evenodd"/>
<path d="m18.546 146.67c0.04 0 0.081-5e-3 0.122-0.014 0.117-0.028 2.897-0.689 3.755-0.95 0.279-0.085 0.436-0.38 0.352-0.659-0.085-0.279-0.375-0.435-0.66-0.352-0.827 0.253-3.663 0.927-3.691 0.933-0.284 0.068-0.459 0.353-0.392 0.636 0.057 0.243 0.274 0.406 0.514 0.406z" clip-rule="evenodd" fill="#5EB2FC" fill-rule="evenodd"/>
<path d="m35.59 131.81c0.126 0 0.252-0.045 0.354-0.136 0.216-0.195 0.233-0.529 0.039-0.745-1.836-2.041-13.005-4.859-18.065-2.807-0.27 0.11-0.4 0.418-0.291 0.688s0.417 0.399 0.688 0.291c4.756-1.929 15.456 0.948 16.882 2.534 0.105 0.116 0.248 0.175 0.393 0.175z" clip-rule="evenodd" fill="#5EB2FC" fill-rule="evenodd"/>
<path d="m7.3554 167.55c0.021 0 0.042-1e-3 0.063-4e-3 0.291-0.034 0.497-0.297 0.462-0.587-0.112-0.932-0.237-1.865-0.363-2.797-0.194-1.45-0.397-2.95-0.539-4.425-0.028-0.291-0.287-0.502-0.576-0.475-0.29 0.027-0.503 0.285-0.475 0.575 0.145 1.495 0.348 3.006 0.544 4.466 0.125 0.927 0.25 1.854 0.361 2.782 0.032 0.269 0.259 0.465 0.523 0.465z" clip-rule="evenodd" fill="#5EB2FC" fill-rule="evenodd"/>
<path d="m45.125 122c0.119 0 0.238-0.04 0.337-0.121 2.548-2.103 4.088-5.145 4.225-8.346 0.118-2.766-0.836-5.289-2.688-7.104-0.209-0.203-0.543-0.2-0.747 8e-3s-0.2 0.542 8e-3 0.747c1.635 1.602 2.476 3.841 2.372 6.304-0.125 2.903-1.525 5.664-3.843 7.576-0.225 0.186-0.257 0.519-0.07 0.744 0.103 0.127 0.255 0.192 0.406 0.192z" clip-rule="evenodd" fill="#0353A7" fill-rule="evenodd"/>
<path d="m100.84 163.27c0.131 0 0.262-0.049 0.364-0.146 4.055-3.866 5.76-9.896 5.831-10.151 0.078-0.28-0.087-0.571-0.368-0.649-0.278-0.08-0.571 0.086-0.649 0.368-0.017 0.059-1.702 6.008-5.542 9.668-0.211 0.202-0.219 0.536-0.018 0.747 0.104 0.107 0.242 0.163 0.382 0.163z" clip-rule="evenodd" fill="#0353A7" fill-rule="evenodd"/>
<path d="m92.048 89.989c-0.17-1.069-1.786-0.854-1.668 0.224 0.152 1.386 0.304 3.013 0.875 4.296 0.228 0.512 0.997 0.409 1.082-0.146 0.213-1.388-0.071-2.998-0.289-4.374z" clip-rule="evenodd" fill="#69E781" fill-rule="evenodd"/>
<path d="m97.61 89.686c-0.329-1.151-2.134-0.425-1.743 0.742 0.423 1.263 0.599 2.644 1.172 3.85 0.266 0.562 1.076 0.449 1.187-0.159 0.273-1.48-0.212-3.02-0.616-4.433z" clip-rule="evenodd" fill="#69E781" fill-rule="evenodd"/>
<path d="m104.88 89.187c-0.612-0.658-1.534-0.362-1.752 0.473-0.186 0.718 0.211 1.514 0.394 2.214 0.182 0.699 0.287 1.391 0.748 1.969 0.319 0.4 0.966 0.318 1.167-0.157 0.305-0.723 0.192-1.466 0.097-2.226-0.093-0.757-0.116-1.694-0.654-2.273z" clip-rule="evenodd" fill="#69E781" fill-rule="evenodd"/>
<path d="m118.18 91.392c-0.091-0.815-0.124-1.853-0.781-2.425-0.24-0.208-0.634-0.184-0.793 0.116-0.403 0.758-0.135 1.673-0.049 2.487 0.078 0.744-0.087 1.705 0.672 2.11 0.169 0.09 0.391 0.1 0.556-0.01 0.765-0.51 0.483-1.484 0.395-2.278z" clip-rule="evenodd" fill="#EC3A3B" fill-rule="evenodd"/>
<path d="m121.62 89.305c-0.486 0.352-0.344 1.01-0.301 1.539 0.059 0.716 0.083 1.429 0.118 2.148 0.04 0.831 1.471 0.846 1.482 1e-3 7e-3 -0.498-0.082-4.566-1.299-3.688z" clip-rule="evenodd" fill="#EC3A3B" fill-rule="evenodd"/>
<path d="m126.44 89.421c-0.167-0.686-0.719-0.379-0.982-0.046-1.097 1.391 0.86 5.12 1.296 2.323 0.114-0.727-0.144-1.575-0.314-2.277z" clip-rule="evenodd" fill="#EC3A3B" fill-rule="evenodd"/>
<path d="m60.661 42.052c-0.423-0.249-0.952-0.404-1.344-0.644-0.338-0.207-0.726-0.522-1.079-0.771-0.756-0.536-1.751 0.228-1.412 1.098 0.241 0.619 0.663 1.11 1.187 1.511 0.487 0.373 1.179 0.792 1.807 0.829 0.507 0.03 0.995-0.198 1.198-0.686 0.178-0.425 0.069-1.087-0.357-1.337z" clip-rule="evenodd" fill="#C8E1BD" fill-rule="evenodd"/>
<path d="m58.399 45.965c-0.409-0.053-0.799-0.235-1.111-0.515-0.348-0.311-0.558-0.747-0.975-0.975-0.196-0.106-0.516-0.012-0.637 0.171-0.439 0.663-0.047 1.552 0.419 2.096 0.54 0.628 1.227 1.005 2.042 1.14 0.402 0.067 0.885-0.194 1.024-0.586 0.061-0.172 0.094-0.317 0.066-0.501-0.063-0.419-0.402-0.775-0.828-0.83z" clip-rule="evenodd" fill="#EC3A3B" fill-rule="evenodd"/>
<mask id="a" x="94" y="274" width="34" height="46" mask-type="alpha" maskUnits="userSpaceOnUse">
<path d="m94.601 274.18h33.067v45.13h-33.067v-45.13z" clip-rule="evenodd" fill="#fff" fill-rule="evenodd"/>
</mask>
<g mask="url(#a)">
<path d="m96.064 274.56c0.399-0.764 0.328-0.293 0.336 0.519 0.037 3.834-0.456 8.998 1.281 12.45 1.593 3.162 4.5676 5.301 5.3336 8.788 0.794 3.617 1.648 7.285 3.104 10.704 3.011 7.071 10.97 8.786 21.549 7.321-0.405 1.61-1.364 3.94-2.969 4.436-5.738 1.769-15.319-1.108-19.468-5.958-2.113-2.473-3.05-5.727-3.958-8.778-1.2986-4.359-2.4986-8.751-3.7366-13.128-2.852-4.917-4.15-11.236-1.472-16.354z" clip-rule="evenodd" fill="#5EB2FC" fill-rule="evenodd"/>
</g>
<path d="m69.476 279.47c-8.902-1.089-13.063-2.467-17.646-14.133-2.242-5.876-0.619-9.507-0.619-9.507l4.481 11.82 4.368 6.53 8.326 2.633 1.09 2.657z" clip-rule="evenodd" fill="#5EB2FC" fill-rule="evenodd"/>
</g>
<defs>
<filter id="e" x="0" y=".0010071" width="230.65" height="328.31" color-interpolation-filters="sRGB" filterUnits="userSpaceOnUse">
<feFlood flood-opacity="0" result="BackgroundImageFix"/>
<feColorMatrix in="SourceAlpha" values="0 0 0 0 0 0 0 0 0 0 0 0 0 0 0 0 0 0 127 0"/>
<feOffset dx="7" dy="7"/>
<feGaussianBlur stdDeviation="1"/>
<feColorMatrix values="0 0 0 0 0.113725 0 0 0 0 0.14902 0 0 0 0 0.176471 0 0 0 0.0963542 0"/>
<feBlend in2="BackgroundImageFix" result="effect1_dropShadow"/>
<feBlend in="SourceGraphic" in2="effect1_dropShadow" result="shape"/>
</filter>
</defs>
</svg>
